<?xml version="1.0" encoding="UTF-8" standalone="no"?><svg xmlns="http://www.w3.org/2000/svg" width="320" height="320" fill="none"><path stroke="#33FFB6" stroke-dasharray="4 8" d="M248 60c13.807 0 25-11.193 25-25s-11.193-25-25-25-25 11.193-25 25 11.193 25 25 25Z"/><path stroke="#33FFB6" stroke-dasharray="4 8" d="M188.542 39.59A87.392 87.392 0 0 0 160.5 35C112.175 35 73 74.175 73 122.5s39.175 87.5 87.5 87.5 87.5-39.175 87.5-87.5a87.392 87.392 0 0 0-4.591-28.044c-29.273-2.228-52.638-25.593-54.867-54.866ZM160.5 161.84c-21.726 0-39.339-17.613-39.339-39.339s17.613-39.34 39.339-39.34 39.339 17.614 39.339 39.34c0 21.726-17.613 39.339-39.339 39.339Z" clip-rule="evenodd"/><path stroke="#33FFB6" stroke-dasharray="4 8" d="M248 222.5a87.494 87.494 0 0 1-87.5 87.5 87.491 87.491 0 0 1-80.84-54.015A87.501 87.501 0 0 1 73 222.5h48.125a39.368 39.368 0 0 0 11.533 27.842 39.367 39.367 0 0 0 42.91 8.536 39.367 39.367 0 0 0 21.31-21.31 39.368 39.368 0 0 0 2.997-15.068H248Z"/></svg>