<?xml version="1.0" encoding="UTF-8" standalone="no"?><svg width="372" height="322" viewBox="0 0 372 322" fill="none" xmlns="http://www.w3.org/2000/svg">
<path d="M1 321V32.3513H70.5435V148.205H183.921V32.3513H253.324V321H183.921V205.005H70.5435V321H1ZM294.748 321V104.514H363.449V321H294.748Z" stroke="url(#paint0_linear_1550_108)" stroke-dasharray="4 8"/>
<path d="M297.424 74.8931C305.905 83.2887 316.047 87.4865 327.851 87.4865C339.77 87.4865 349.913 83.2887 358.279 74.8931C366.76 66.3741 371 56.1266 371 44.1506C371 32.2981 366.76 22.1741 358.279 13.7785C349.913 5.25951 339.77 1 327.851 1C316.047 1 305.905 5.25951 297.424 13.7785C288.943 22.1741 284.703 32.2981 284.703 44.1506C284.703 56.1266 288.943 66.3741 297.424 74.8931Z" stroke="url(#paint1_linear_1550_108)" stroke-dasharray="4 8"/>
<defs>
<linearGradient id="paint0_linear_1550_108" x1="186.539" y1="0.999995" x2="186.539" y2="321" gradientUnits="userSpaceOnUse">
<stop offset="0.5" stop-color="#33FFB6"/>
<stop offset="1" stop-color="#0A0A14" stop-opacity="0"/>
</linearGradient>
<linearGradient id="paint1_linear_1550_108" x1="186.539" y1="0.999995" x2="186.539" y2="321" gradientUnits="userSpaceOnUse">
<stop offset="0.5" stop-color="#33FFB6"/>
<stop offset="1" stop-color="#0A0A14" stop-opacity="0"/>
</linearGradient>
</defs>
</svg>
