<?xml version="1.0" encoding="UTF-8" standalone="no"?><svg xmlns="http://www.w3.org/2000/svg" width="748" height="258" fill="none"><path stroke="url(#a)" stroke-dasharray="4 8" d="M608.753 1c27.064 0 50.959 5.486 71.684 16.457 20.968 10.972 37.304 26.088 49.008 45.349C741.148 81.823 747 103.888 747 129c0 24.869-5.974 46.933-17.921 66.194-11.703 19.261-27.918 34.377-48.642 45.349C659.712 251.514 635.817 257 608.753 257H525V1h83.753Zm.084 201c11.201 0 21.55-1.709 31.046-5.126 9.496-3.662 17.775-8.666 24.837-15.013 7.061-6.591 12.54-14.28 16.436-23.068 3.896-9.032 5.844-18.796 5.844-29.293s-1.948-20.139-5.844-28.927c-3.896-9.032-9.375-16.721-16.436-23.068-7.062-6.59-15.341-11.595-24.837-15.013C630.387 58.831 620.038 57 608.837 57H584v145h24.837Z" clip-rule="evenodd"/><path stroke="url(#b)" stroke-dasharray="4 8" d="M444.11 256.635 328.89 96.266V257l-58.89-.365V1h61.816L444.11 157.6V1H503v255.635h-58.89Z"/><path stroke="url(#c)" stroke-dasharray="4 8" d="m200.031 257-18.146-48.64H81.115L62.97 257H1L100.151 1h62.698L262 257h-61.969Zm-37.52-100.572L131.5 73.305l-31.011 83.123h62.022Z" clip-rule="evenodd"/><defs><linearGradient id="a" x1="352.797" x2="352.797" y1="-11.752" y2="277.77" gradientUnits="userSpaceOnUse"><stop offset=".5" stop-color="#33FFB6"/><stop offset="1" stop-color="#0C0B14" stop-opacity="0"/></linearGradient><linearGradient id="b" x1="380.682" x2="380.682" y1="-11.734" y2="277.375" gradientUnits="userSpaceOnUse"><stop offset=".5" stop-color="#33FFB6"/><stop offset="1" stop-color="#0C0B14" stop-opacity="0"/></linearGradient><linearGradient id="c" x1="400.161" x2="400.161" y1="-11.752" y2="277.77" gradientUnits="userSpaceOnUse"><stop offset=".5" stop-color="#33FFB6"/><stop offset="1" stop-color="#0C0B14" stop-opacity="0"/></linearGradient></defs></svg>