<?xml version="1.0" encoding="UTF-8" standalone="no"?><svg xmlns="http://www.w3.org/2000/svg" width="598" height="258" fill="none"><path stroke="url(#a)" stroke-dasharray="4 8" d="M597 4h-64.917L481 91.245 429.917 4H365l87.621 144.223V254h57.113V147.639L597 4Z"/><path stroke="url(#b)" stroke-dasharray="4 8" d="m372.218 254-17.799-47.5h-98.838L237.782 254H177L274.251 4h61.498L433 254h-60.782Zm-36.802-98.214L305 74.611l-30.417 81.175h60.833Z" clip-rule="evenodd"/><path stroke="url(#c)" stroke-dasharray="4 8" d="M96.447 257c-11.887 0-23.308-1.532-34.263-4.597-10.722-3.3-20.511-7.661-29.368-13.083-8.624-5.657-15.733-11.904-21.327-18.74-5.594-7.072-9.09-14.615-10.489-22.63l55.59-15.911c2.564 6.836 6.993 12.847 13.286 18.033 6.526 4.95 14.684 7.543 24.474 7.779 9.556.236 17.481-2.004 23.774-6.718 6.526-4.715 9.79-10.844 9.79-18.387 0-5.893-2.331-11.079-6.993-15.558-4.429-4.479-10.838-7.897-19.229-10.254l-34.613-8.84c-12.12-3.065-22.726-7.897-31.816-14.497-8.857-6.601-15.85-14.615-20.977-24.045-4.895-9.664-7.342-20.626-7.342-32.884 0-23.808 7.808-42.313 23.424-55.513C45.985 7.718 68.011 1 96.448 1c15.616 0 29.251 2.24 40.905 6.718 11.655 4.243 21.561 10.608 29.718 19.094 8.391 8.486 15.034 19.094 19.929 31.823l-55.241 16.62c-1.864-6.365-5.943-12.14-12.236-17.327-6.061-5.186-13.985-7.779-23.775-7.779s-17.481 2.24-23.075 6.718c-5.361 4.48-8.041 10.962-8.041 19.448 0 5.893 2.214 10.843 6.642 14.85 4.429 3.772 10.49 6.601 18.18 8.487l34.614 8.84c19.812 4.95 35.195 14.261 46.15 27.933C181.406 149.862 187 165.184 187 182.392c0 15.558-3.613 28.877-10.838 39.956-6.993 11.079-17.248 19.683-30.767 25.812-13.519 5.893-29.835 8.84-48.948 8.84Z"/><defs><linearGradient id="a" x1="243.26" x2="243.26" y1="-8.453" y2="274.283" gradientUnits="userSpaceOnUse"><stop offset=".5" stop-color="#33FFB6"/><stop offset="1" stop-color="#0C0B14" stop-opacity="0"/></linearGradient><linearGradient id="b" x1="568.514" x2="568.514" y1="-8.453" y2="274.283" gradientUnits="userSpaceOnUse"><stop offset=".5" stop-color="#33FFB6"/><stop offset="1" stop-color="#0C0B14" stop-opacity="0"/></linearGradient><linearGradient id="c" x1="298.605" x2="298.605" y1="-7.086" y2="272.839" gradientUnits="userSpaceOnUse"><stop offset=".5" stop-color="#33FFB6"/><stop offset="1" stop-color="#0C0B14" stop-opacity="0"/></linearGradient></defs></svg>