<?xml version="1.0" encoding="UTF-8" standalone="no"?><svg xmlns="http://www.w3.org/2000/svg" width="25" height="24" fill="none"><circle cx="12.898" cy="12" r="10.001" stroke="#fff" stroke-width="1.5"/><path stroke="#fff" stroke-width="1.5" d="M11.7 13.25h-.75v3h-.3v-7.5h3.25c.387 0 .973.13 1.442.476.435.32.807.849.807 1.774 0 .887-.405 1.422-.893 1.763-.524.367-1.123.487-1.357.487h-2.2Zm.044-4.155h-.75v3.9H13.9c1.068 0 1.965-.93 1.965-2.04 0-.564-.219-1.055-.617-1.395-.383-.328-.872-.465-1.348-.465h-2.155Z"/></svg>