<?xml version="1.0" encoding="UTF-8" standalone="no"?><svg width="566" height="258" viewBox="0 0 566 258" fill="none" xmlns="http://www.w3.org/2000/svg">
<path d="M215 7V251H379V199.411H272.275V153.051H360.145V103.206H272.275V58.5886H377.221V7H215Z" stroke="url(#paint0_linear_1646_111)" stroke-dasharray="4 8"/>
<path d="M401 7V251H565V199.411H458.275V153.051H546.145V103.206H458.275V58.5886H563.221V7H401Z" stroke="url(#paint1_linear_1646_111)" stroke-dasharray="4 8"/>
<path d="M97.4737 257C85.4586 257 73.9148 255.468 62.8421 252.403C52.005 249.103 42.1103 244.742 33.1579 239.32C24.4411 233.663 17.2556 227.416 11.6015 220.58C5.94737 213.508 2.41353 205.965 1 197.95L57.188 182.039C59.7794 188.875 64.2556 194.886 70.6165 200.072C77.213 205.022 85.4586 207.615 95.3534 207.851C105.013 208.087 113.023 205.847 119.383 201.133C125.98 196.418 129.278 190.289 129.278 182.746C129.278 176.853 126.922 171.667 122.211 167.188C117.734 162.709 111.256 159.291 102.774 156.934L67.7895 148.094C55.5388 145.029 44.8195 140.197 35.6316 133.597C26.6792 126.996 19.6115 118.982 14.4286 109.552C9.4812 99.8877 7.00752 88.9263 7.00752 76.6685C7.00752 52.86 14.8998 34.3554 30.6842 21.1547C46.4687 7.71823 68.7318 1 97.4737 1C113.258 1 127.04 3.23941 138.82 7.71823C150.599 11.9613 160.612 18.326 168.857 26.8121C177.338 35.2983 184.053 45.9061 189 58.6354L133.165 75.2541C131.281 68.8895 127.158 63.1142 120.797 57.9282C114.672 52.7422 106.662 50.1492 96.7669 50.1492C86.8722 50.1492 79.0977 52.3886 73.4436 56.8674C68.0251 61.3462 65.3158 67.8287 65.3158 76.3149C65.3158 82.2081 67.5539 87.1584 72.0301 91.1657C76.5063 94.9374 82.6316 97.7661 90.406 99.6519L125.391 108.492C145.416 113.442 160.965 122.753 172.038 136.425C183.346 149.862 189 165.184 189 182.392C189 197.95 185.348 211.269 178.045 222.348C170.977 233.427 160.612 242.031 146.947 248.16C133.283 254.053 116.792 257 97.4737 257Z" stroke="url(#paint2_linear_1646_111)" stroke-dasharray="4 8"/>
<defs>
<linearGradient id="paint0_linear_1646_111" x1="279.651" y1="-5.15436" x2="279.651" y2="270.797" gradientUnits="userSpaceOnUse">
<stop offset="0.5" stop-color="#33FFB6"/>
<stop offset="1" stop-color="#0C0B14" stop-opacity="0"/>
</linearGradient>
<linearGradient id="paint1_linear_1646_111" x1="465.651" y1="-5.15436" x2="465.651" y2="270.797" gradientUnits="userSpaceOnUse">
<stop offset="0.5" stop-color="#33FFB6"/>
<stop offset="1" stop-color="#0C0B14" stop-opacity="0"/>
</linearGradient>
<linearGradient id="paint2_linear_1646_111" x1="301.805" y1="-7.08624" x2="301.805" y2="272.839" gradientUnits="userSpaceOnUse">
<stop offset="0.5" stop-color="#33FFB6"/>
<stop offset="1" stop-color="#0C0B14" stop-opacity="0"/>
</linearGradient>
</defs>
</svg>
