<?xml version="1.0" encoding="UTF-8" standalone="no"?><svg xmlns="http://www.w3.org/2000/svg" width="22" height="8" fill="none"><path fill="#33FFB6" d="M0 7.875h1.448v-2.86h1.511c.54 0 1.015-.094 1.427-.282.412-.194.735-.475.969-.842.241-.368.362-.808.362-1.321 0-.528-.117-.971-.352-1.332a2.214 2.214 0 0 0-.979-.822C3.974.222 3.499.125 2.959.125H0v7.75Zm1.448-4.11V1.374H2.98c.39 0 .702.108.937.323.234.215.35.506.35.874 0 .36-.116.651-.35.873-.235.215-.547.323-.937.323H1.448ZM6.903 7.875h1.448v-2.86h1.362l1.64 2.86h1.64l-1.821-3.11c.44-.18.788-.458 1.043-.833.263-.374.394-.828.394-1.362 0-.528-.117-.971-.351-1.332a2.214 2.214 0 0 0-.98-.822c-.411-.194-.887-.291-1.426-.291H6.903v7.75Zm1.448-4.11V1.374h1.522c.39 0 .703.108.937.323.234.215.351.506.351.874 0 .36-.117.651-.351.873-.234.215-.546.323-.937.323H8.351ZM17.848 8c.59 0 1.136-.1 1.64-.302a4.062 4.062 0 0 0 1.32-.842c.376-.361.667-.784.873-1.27.212-.492.319-1.022.319-1.591a3.92 3.92 0 0 0-.32-1.592 3.678 3.678 0 0 0-.872-1.259 4.062 4.062 0 0 0-1.32-.842A4.382 4.382 0 0 0 17.848 0c-.589 0-1.135.1-1.64.302a4.06 4.06 0 0 0-1.32.842c-.368.354-.66.774-.872 1.26a4.035 4.035 0 0 0-.309 1.59c0 .57.103 1.1.309 1.592.213.486.507.909.883 1.27.377.36.817.641 1.32.842A4.353 4.353 0 0 0 17.85 8Zm0-1.29c-.51 0-.972-.118-1.384-.354a2.589 2.589 0 0 1-.958-.967 2.756 2.756 0 0 1-.351-1.394c0-.52.117-.982.351-1.384.234-.409.554-.732.958-.967a2.734 2.734 0 0 1 1.384-.354c.518 0 .98.118 1.384.354.405.236.724.558.958.967.234.402.351.864.351 1.384 0 .52-.117.985-.35 1.394-.235.409-.554.731-.959.967a2.697 2.697 0 0 1-1.384.354Z"/></svg>