<?xml version="1.0" encoding="UTF-8" standalone="no"?><svg xmlns="http://www.w3.org/2000/svg" width="320" height="320" fill="none"><path fill="#33FFB6" d="m232.66 112 .484.126.163-.626h-.647v.5Zm-23.952 0v-.5h-.397l-.09.386.487.114Zm-3.85 106.667v.5h.387l.097-.374-.484-.126Zm-25.663 0-.484.125.097.375h.387v-.5Zm-18.535-71.589.484-.125-.484-1.87-.484 1.87.484.125Zm-18.534 71.589v.5h.387l.097-.375-.484-.125Zm-25.664 0-.484.126.098.374h.386v-.5ZM88.66 112v-.5h-.647l.163.626.484-.126Zm23.953 0 .486-.114-.09-.386h-.396v.5Zm17.821 76.027-.486.114.972.006-.486-.12ZM149.254 112v-.5h-.391l-.094.38.485.12Zm22.812 0 .485-.12-.094-.38h-.391v.5Zm18.82 76.027-.485.12.972-.006-.487-.114ZM32.5 160l.001-2.003-1-.001L31.5 160h1Zm.035-9.807c.01-1.335.022-2.654.037-3.959l-1-.012c-.015 1.307-.027 2.627-.037 3.963l1 .008Zm.16-11.754c.027-1.334.057-2.652.091-3.953l-1-.026a709.527 709.527 0 0 0-.091 3.958l1 .021Zm.345-11.772c.052-1.311.108-2.604.169-3.88l-1-.047a487.59 487.59 0 0 0-.168 3.888l1 .039Zm.614-11.7c.09-1.323.184-2.624.286-3.905l-.997-.079c-.102 1.285-.197 2.59-.286 3.917l.997.067Zm1.011-11.691c.142-1.313.293-2.601.453-3.866l-.992-.125c-.16 1.271-.312 2.565-.455 3.883l.994.108Zm1.59-11.569c.226-1.323.464-2.616.716-3.88l-.98-.196a145.89 145.89 0 0 0-.722 3.907l.986.169Zm2.476-11.453a93.683 93.683 0 0 1 1.097-3.757l-.954-.3a94.494 94.494 0 0 0-1.108 3.797l.965.26Zm3.783-11.02a62.03 62.03 0 0 1 1.658-3.534l-.89-.454a63.148 63.148 0 0 0-1.686 3.591l.918.397Zm5.654-10.17a47.061 47.061 0 0 1 2.367-3.058l-.764-.644a48.02 48.02 0 0 0-2.418 3.123l.816.58Zm7.838-8.529a47.05 47.05 0 0 1 3.058-2.366l-.58-.816a48.012 48.012 0 0 0-3.122 2.418l.644.764Zm9.694-6.362a62.127 62.127 0 0 1 3.534-1.659l-.397-.918a63.177 63.177 0 0 0-3.59 1.685l.453.892Zm10.797-4.345c1.219-.384 2.47-.75 3.757-1.097l-.26-.965a94.5 94.5 0 0 0-3.798 1.108l.301.954Zm11.33-2.857c1.264-.252 2.557-.49 3.88-.716l-.168-.986c-1.332.227-2.634.468-3.908.721l.195.981Zm11.583-1.853c1.265-.16 2.553-.31 3.866-.453l-.108-.994c-1.318.143-2.612.294-3.883.455l.125.992Zm11.652-1.178a331.2 331.2 0 0 1 3.905-.286l-.067-.998c-1.327.09-2.632.185-3.917.287l.079.997Zm11.725-.731a487.61 487.61 0 0 1 3.88-.169l-.039-.999c-1.314.052-2.61.108-3.888.169l.047.999Zm11.699-.423c1.301-.034 2.619-.064 3.953-.092l-.021-1c-1.336.028-2.655.059-3.958.093l.026 1Zm11.748-.214c1.304-.015 2.624-.027 3.959-.037l-.008-1c-1.336.01-2.657.022-3.963.037l.012 1Zm11.763-.07c.664-.002 1.332-.002 2.003-.002v-1l-2.004.001.001 1ZM160 32.5l2.003.001.001-1L160 31.5v1Zm9.807.035c1.335.01 2.654.022 3.959.037l.012-1c-1.307-.015-2.627-.027-3.963-.037l-.008 1Zm11.754.16c1.334.027 2.652.057 3.953.091l.026-1a709.527 709.527 0 0 0-3.958-.091l-.021 1Zm11.772.345c1.311.052 2.604.108 3.88.169l.047-1a487.59 487.59 0 0 0-3.888-.168l-.039 1Zm11.7.614c1.323.09 2.624.184 3.905.286l.079-.997c-1.285-.102-2.59-.197-3.917-.286l-.067.997Zm11.691 1.011c1.313.142 2.601.293 3.866.453l.125-.992c-1.271-.16-2.565-.312-3.883-.455l-.108.994Zm11.569 1.59c1.323.226 2.616.464 3.881.716l.195-.98a145.037 145.037 0 0 0-3.908-.722l-.168.986Zm11.453 2.476c1.286.347 2.538.713 3.757 1.097l.301-.954a94.76 94.76 0 0 0-3.798-1.108l-.26.965Zm11.02 3.783a62.217 62.217 0 0 1 3.534 1.658l.454-.89a63.307 63.307 0 0 0-3.591-1.686l-.397.918Zm10.17 5.654a47.164 47.164 0 0 1 3.058 2.367l.644-.764c-1-.843-2.041-1.648-3.123-2.418l-.579.816Zm8.529 7.838a47.076 47.076 0 0 1 2.366 3.058l.816-.58a48.234 48.234 0 0 0-2.418-3.122l-.764.644Zm6.362 9.694a61.79 61.79 0 0 1 1.659 3.534l.918-.397a63.454 63.454 0 0 0-1.685-3.59l-.892.453Zm4.345 10.797a93.72 93.72 0 0 1 1.097 3.757l.965-.26c-.35-1.3-.72-2.565-1.108-3.798l-.954.301Zm2.857 11.33c.252 1.264.49 2.557.716 3.88l.986-.168a146.634 146.634 0 0 0-.721-3.908l-.981.195Zm1.853 11.583c.16 1.265.311 2.553.453 3.866l.994-.108a218.45 218.45 0 0 0-.455-3.883l-.992.125Zm1.178 11.652c.102 1.281.197 2.582.286 3.905l.998-.067a341.92 341.92 0 0 0-.287-3.917l-.997.079Zm.731 11.725c.061 1.276.117 2.569.169 3.88l.999-.039c-.052-1.314-.108-2.61-.169-3.888l-.999.047Zm.423 11.699c.034 1.301.064 2.619.092 3.953l.999-.021a672.837 672.837 0 0 0-.092-3.958l-.999.026Zm.214 11.748c.015 1.304.027 2.624.037 3.959l1-.008c-.01-1.336-.022-2.657-.037-3.963l-1 .012Zm.071 11.763L287.5 160h1l-.001-2.004-1 .001ZM287.5 160l-.001 2.003 1 .001.001-2.004h-1Zm-.035 9.807c-.01 1.335-.022 2.654-.037 3.959l1 .012c.015-1.307.027-2.627.037-3.963l-1-.008Zm-.159 11.754a770.206 770.206 0 0 1-.092 3.953l.999.026c.034-1.303.065-2.622.092-3.958l-.999-.021Zm-.346 11.772a478.144 478.144 0 0 1-.169 3.88l.999.047c.061-1.278.117-2.574.169-3.888l-.999-.039Zm-.614 11.7a318.716 318.716 0 0 1-.286 3.905l.997.079c.102-1.285.197-2.59.287-3.917l-.998-.067Zm-1.011 11.691a215.229 215.229 0 0 1-.453 3.866l.992.125c.161-1.271.312-2.565.455-3.883l-.994-.108Zm-1.59 11.569a143.84 143.84 0 0 1-.716 3.881l.981.195c.253-1.274.494-2.576.721-3.908l-.986-.168Zm-2.476 11.453a94.043 94.043 0 0 1-1.097 3.757l.954.301a94.928 94.928 0 0 0 1.108-3.798l-.965-.26Zm-3.783 11.02a61.627 61.627 0 0 1-1.659 3.534l.892.454a63.584 63.584 0 0 0 1.685-3.591l-.918-.397Zm-5.655 10.17a47.153 47.153 0 0 1-2.366 3.058l.764.644c.843-1 1.648-2.041 2.418-3.123l-.816-.579Zm-7.837 8.529a47.153 47.153 0 0 1-3.058 2.366l.579.816a48.202 48.202 0 0 0 3.123-2.418l-.644-.764Zm-9.694 6.362a61.627 61.627 0 0 1-3.534 1.659l.397.918a63.584 63.584 0 0 0 3.591-1.685l-.454-.892Zm-10.797 4.345c-1.219.384-2.471.75-3.757 1.097l.26.965c1.299-.35 2.565-.72 3.798-1.108l-.301-.954Zm-11.329 2.857c-1.265.252-2.558.49-3.881.716l.168.986c1.332-.227 2.634-.468 3.908-.721l-.195-.981Zm-11.584 1.853c-1.265.16-2.553.311-3.866.453l.108.994c1.318-.143 2.612-.294 3.883-.455l-.125-.992Zm-11.652 1.178c-1.281.102-2.582.197-3.905.286l.067.998a341.92 341.92 0 0 0 3.917-.287l-.079-.997Zm-11.725.731c-1.276.061-2.569.117-3.88.169l.039.999c1.314-.052 2.61-.108 3.888-.169l-.047-.999Zm-11.699.423c-1.301.034-2.619.064-3.953.092l.021.999c1.336-.027 2.655-.058 3.958-.092l-.026-.999Zm-11.748.214c-1.305.015-2.624.027-3.959.037l.008 1c1.335-.01 2.656-.022 3.963-.037l-.012-1Zm-11.763.071L160 287.5v1l2.004-.001-.001-1ZM160 287.5l-2.003-.001-.001 1 2.004.001v-1Zm-9.807-.035c-1.335-.01-2.654-.022-3.959-.037l-.012 1c1.307.015 2.627.027 3.963.037l.008-1Zm-11.754-.159a770.206 770.206 0 0 1-3.953-.092l-.026.999c1.303.034 2.622.065 3.958.092l.021-.999Zm-11.772-.346a478.144 478.144 0 0 1-3.88-.169l-.047.999c1.278.061 2.574.117 3.888.169l.039-.999Zm-11.7-.614a318.716 318.716 0 0 1-3.905-.286l-.079.997c1.285.102 2.59.197 3.917.287l.067-.998Zm-11.691-1.011a214.99 214.99 0 0 1-3.866-.453l-.125.992c1.271.161 2.565.312 3.883.455l.108-.994Zm-11.569-1.59a144.048 144.048 0 0 1-3.88-.716l-.196.981c1.274.253 2.576.494 3.907.721l.169-.986Zm-11.453-2.476a93.677 93.677 0 0 1-3.757-1.097l-.3.954a94.66 94.66 0 0 0 3.797 1.108l.26-.965Zm-11.02-3.783a61.79 61.79 0 0 1-3.534-1.659l-.454.892a63.454 63.454 0 0 0 3.591 1.685l.397-.918Zm-10.17-5.655a47.05 47.05 0 0 1-3.058-2.366l-.644.764c1 .843 2.04 1.648 3.123 2.418l.58-.816Zm-8.529-7.837a47.164 47.164 0 0 1-2.366-3.058l-.816.579a47.98 47.98 0 0 0 2.418 3.123l.764-.644Zm-6.362-9.694a61.963 61.963 0 0 1-1.659-3.534l-.918.397a63.307 63.307 0 0 0 1.685 3.591l.892-.454Zm-4.345-10.797a94.049 94.049 0 0 1-1.097-3.757l-.965.26a94.76 94.76 0 0 0 1.108 3.798l.954-.301Zm-2.857-11.329c-.252-1.265-.49-2.558-.716-3.881l-.986.168c.227 1.332.468 2.634.721 3.908l.981-.195Zm-1.853-11.584c-.16-1.265-.31-2.553-.453-3.866l-.994.108c.143 1.318.294 2.612.455 3.883l.992-.125Zm-1.178-11.652a329.072 329.072 0 0 1-.286-3.905l-.998.067c.09 1.327.185 2.632.287 3.917l.997-.079Zm-.731-11.725a487.61 487.61 0 0 1-.169-3.88l-.999.039c.052 1.314.108 2.61.169 3.888l.999-.047Zm-.423-11.699a717.383 717.383 0 0 1-.092-3.953l-1 .021c.028 1.336.059 2.655.093 3.958l1-.026Zm-.214-11.748c-.015-1.305-.027-2.624-.037-3.959l-1 .008c.01 1.335.022 2.656.037 3.963l1-.012Zm-.07-11.763c-.002-.664-.002-1.332-.002-2.003h-1l.001 2.004 1-.001Zm199.674-50.129-.515 1.975.968.252.515-1.975-.968-.252Zm-2.574 9.876-1.03 3.951.968.252 1.03-3.95-.968-.253Zm-3.089 11.852-1.03 3.951.968.252 1.03-3.951-.968-.252Zm-3.089 11.852-1.03 3.951.968.252 1.03-3.951-.968-.252Zm-3.089 11.852-1.03 3.951.968.252 1.029-3.951-.967-.252Zm-3.089 11.852-1.03 3.95.968.253 1.029-3.951-.967-.252Zm-3.089 11.852-1.03 3.95.967.252 1.03-3.95-.967-.252Zm-3.09 11.852-1.029 3.95.967.252 1.03-3.95-.968-.252Zm-3.089 11.851-1.029 3.951.967.252 1.03-3.95-.968-.253Zm-3.089 11.852-.515 1.976.968.252.515-1.976-.968-.252Zm-.031 1.602h-2.138v1h2.138v-1Zm-10.693 0h-4.277v1h4.277v-1Zm-12.832 0h-2.138v1h2.138v-1Zm-1.654.374-.515-1.988-.968.25.515 1.989.968-.251Zm-2.574-9.943-1.03-3.977-.968.251 1.03 3.977.968-.251Zm-3.09-11.931-1.029-3.977-.968.251 1.029 3.977.968-.251Zm-3.089-11.931-1.029-3.977-.968.25 1.029 3.977.968-.25Zm-3.089-11.932-1.029-3.977-.969.251 1.03 3.977.968-.251Zm-3.089-11.931-1.03-3.977-.968.25 1.03 3.978.968-.251Zm-3.089-11.931-.515-1.989-.968.251.515 1.988.968-.25Zm-1.483-1.989-.515 1.989.968.25.515-1.988-.968-.251Zm-2.574 9.943-1.03 3.977.968.251 1.03-3.978-.968-.25Zm-3.089 11.931-1.03 3.977.968.251 1.03-3.977-.968-.251Zm-3.089 11.932-1.03 3.977.968.25 1.03-3.977-.968-.25Zm-3.089 11.931-1.03 3.977.968.251 1.03-3.977-.968-.251Zm-3.09 11.931-1.029 3.977.968.251 1.03-3.977-.969-.251Zm-3.089 11.932-.515 1.988.969.251.514-1.989-.968-.25Zm-.03 1.614h-2.139v1h2.139v-1Zm-10.694 0h-4.277v1h4.277v-1Zm-12.831 0h-2.139v1h2.139v-1Zm-1.655.374-.515-1.976-.968.252.515 1.976.968-.252Zm-2.574-9.877-1.03-3.951-.968.253 1.03 3.95.968-.252Zm-3.089-11.852-1.03-3.95-.968.252 1.03 3.95.968-.252Zm-3.09-11.852-1.029-3.95-.968.252 1.03 3.951.967-.253Zm-3.089-11.852-1.029-3.95-.968.252 1.03 3.951.967-.253Zm-3.089-11.851-1.029-3.951-.968.252 1.03 3.951.967-.252Zm-3.089-11.852-1.03-3.951-.967.252 1.03 3.951.967-.252Zm-3.089-11.852-1.03-3.951-.967.253 1.03 3.95.967-.252Zm-3.089-11.852-1.03-3.951-.967.253 1.03 3.95.967-.252Zm-3.09-11.852-.514-1.975-.968.252.515 1.975.968-.252Zm-.998-1.349h1.996v-1H88.66v1Zm9.98 0h3.992v-1H98.64v1Zm11.977 0h1.996v-1h-1.996v1Zm1.509-.386.424 1.81.974-.228-.425-1.81-.973.228Zm2.121 9.051.849 3.62.974-.228-.849-3.62-.974.228Zm2.546 10.861.849 3.62.974-.228-.849-3.62-.974.228Zm2.546 10.861.849 3.62.974-.228-.849-3.62-.974.228Zm2.546 10.861.849 3.62.974-.228-.849-3.62-.974.228Zm2.546 10.861.849 3.62.974-.228-.849-3.62-.974.228Zm2.546 10.861.849 3.62.974-.228-.849-3.62-.974.228Zm2.546 10.861.425 1.81.973-.228-.424-1.81-.974.228Zm1.397 1.816.448-1.81-.971-.24-.448 1.81.971.24Zm2.24-9.051.896-3.62-.97-.24-.896 3.62.97.24Zm2.689-10.861.896-3.62-.971-.24-.896 3.62.971.24Zm2.688-10.861.896-3.62-.97-.24-.896 3.62.97.24Zm2.689-10.861.896-3.62-.971-.24-.896 3.62.971.24Zm2.688-10.861.897-3.62-.971-.24-.896 3.62.97.24Zm2.689-10.861.896-3.62-.971-.24-.896 3.62.971.24Zm2.688-10.861.449-1.81-.971-.24-.448 1.81.97.24Zm-.037-1.43h1.901v-1h-1.901v1Zm9.505 0h3.802v-1h-3.802v1Zm11.406 0h1.901v-1h-1.901v1Zm1.416-.38.448 1.81.971-.24-.449-1.81-.97.24Zm2.24 9.051.896 3.62.971-.24-.896-3.62-.971.24Zm2.689 10.861.896 3.62.971-.24-.897-3.62-.97.24Zm2.688 10.861.896 3.62.971-.24-.896-3.62-.971.24Zm2.689 10.861.896 3.62.971-.24-.896-3.62-.971.24Zm2.688 10.861.897 3.62.97-.24-.896-3.62-.971.24Zm2.689 10.861.896 3.62.971-.24-.896-3.62-.971.24Zm2.688 10.861.449 1.81.97-.24-.448-1.81-.971.24Zm1.421 1.804.424-1.81-.974-.228-.424 1.81.974.228Zm2.121-9.051.849-3.62-.974-.228-.848 3.62.973.228Zm2.546-10.861.849-3.62-.974-.228-.848 3.62.973.228Zm2.546-10.861.849-3.62-.974-.228-.848 3.62.973.228Zm2.546-10.861.849-3.62-.974-.228-.848 3.62.973.228Zm2.546-10.861.849-3.62-.974-.228-.848 3.62.973.228Zm2.546-10.861.849-3.62-.974-.228-.848 3.62.973.228Zm2.546-10.861.424-1.81-.973-.228-.424 1.81.973.228Zm-.062-1.424h1.996v-1h-1.996v1Zm9.98 0h3.992v-1h-3.992v1Zm11.976 0h1.996v-1h-1.996v1Z"/></svg>