<?xml version="1.0" encoding="UTF-8" standalone="no"?><svg width="40" height="40" fill="none" xmlns="http://www.w3.org/2000/svg"><path d="M24 15.726C22.654 14.06 20.618 13 18.34 13 14.285 13 11 16.358 11 20.5c0 4.142 3.286 7.5 7.34 7.5 2.278 0 4.314-1.06 5.66-2.726l-3.015-2.176a3.622 3.622 0 0 1-2.646 1.152c-2.026 0-3.67-1.679-3.67-3.75 0-2.071 1.644-3.75 3.67-3.75 1.04 0 1.979.442 2.646 1.152L24 15.726z" fill="#F2800D"/><path d="M27.039 27.21a10.843 10.843 0 0 1-8.551 4.165c-6.001 0-10.866-4.869-10.866-10.875S12.487 9.625 18.488 9.625c3.47 0 6.561 1.629 8.55 4.164L30 11.696A14.46 14.46 0 0 0 18.488 6C10.486 6 4 12.492 4 20.5S10.486 35 18.488 35A14.46 14.46 0 0 0 30 29.304l-2.961-2.093z" fill="#FFD500"/><path d="M36 12v17l-12-8.5L36 12z" fill="#748F3D"/></svg>