<?xml version="1.0" encoding="UTF-8" standalone="no"?><svg width="40" height="40" fill="none" xmlns="http://www.w3.org/2000/svg"><path d="M35 9c.753.974 1.05 2.274.995 3.745-.056 1.471-.524 3.127-1.38 4.872-.854 1.745-2.079 3.545-3.603 5.298a35.685 35.685 0 0 1-5.28 4.919 35.844 35.844 0 0 1-6.154 3.79c-2.1 1.007-4.169 1.716-6.088 2.084-1.92.368-3.652.388-5.098.06C6.946 33.442 5.752 32.975 5 32L35 9zM17.573 18.494 5.034 9c-1.52 1.966-1.341 5.051.387 8.576 1.074 2.19 2.714 4.437 4.754 6.549l7.398-5.63zM23.59 32.868c1.014.346 2.01.616 2.975.8 3.88.744 6.914.263 8.435-1.704l-4.846-3.894a40.271 40.271 0 0 1-6.564 4.798z" fill="#1C536E"/><path d="M20 5a5 5 0 1 1 0 10 5 5 0 0 1 0-10z" fill="#DA852F"/></svg>