<?xml version="1.0" encoding="UTF-8" standalone="no"?><svg width="40" height="40" fill="none" xmlns="http://www.w3.org/2000/svg"><path d="M34.308 5.692c3.95 3.951.748 13.56-7.154 21.462-7.902 7.902-17.51 11.105-21.462 7.154-3.95-3.951-.748-13.56 7.154-21.462 7.902-7.902 17.51-11.105 21.462-7.154z" fill="#5C3DF5"/><path d="M18 5.942c-5.106-2.425-9.763-2.68-12.25-.192-2.488 2.487-2.233 7.144.192 12.25 1.488-2.268 3.315-4.514 5.43-6.629 2.114-2.114 4.36-3.941 6.628-5.43zM28.629 28.629c2.114-2.115 3.941-4.361 5.43-6.629 2.424 5.106 2.679 9.763.191 12.25-2.487 2.488-7.144 2.233-12.25-.192 2.268-1.488 4.514-3.315 6.629-5.43z" fill="#F93"/></svg>