<?xml version="1.0" encoding="UTF-8" standalone="no"?><svg width="40" height="40" fill="none" xmlns="http://www.w3.org/2000/svg"><path d="M4 4h32v32L4 4z" fill="#6247EB"/><path fill-rule="evenodd" clip-rule="evenodd" d="M20 4C11.163 4 4 11.163 4 20s7.163 16 16 16 16-7.163 16-16S28.837 4 20 4zm-7.002 23.002c3.867 3.867 10.137 3.867 14.004 0L12.998 12.998c-3.867 3.867-3.867 10.137 0 14.004z" fill="#26D99D"/><path d="M20.12 20.12c1.89 1.89.551 5.12-2.12 5.12a3 3 0 0 1-3-3c0-2.671 3.23-4.01 5.12-2.12z" fill="#6247EB"/><path d="M20.12 20.12c-1.89-1.89-.551-5.12 2.12-5.12a3 3 0 0 1 3 3c0 2.671-3.23 4.01-5.12 2.12z" fill="#E6FF66"/></svg>