<?xml version="1.0" encoding="UTF-8" standalone="no"?><svg width="90" height="40" viewBox="0 0 90 40" fill="none" xmlns="http://www.w3.org/2000/svg">
<path d="M17.2983 3C7.7447 3 0 10.6112 0 20C0 29.3888 7.7447 37 17.2983 37C26.8518 37 34.5965 29.3888 34.5965 20C34.5965 10.6112 26.8518 3 17.2983 3Z" fill="#9895B2"/>
<path d="M54.223 23.944C54.5486 23.528 54.923 23.136 55.3463 22.768C55.5091 22.64 55.6638 22.36 55.8103 21.928C55.9569 21.48 56.0464 21.032 56.079 20.584C56.1115 20.136 56.0546 19.776 55.908 19.504C55.7615 19.232 55.4847 19.2 55.0777 19.408C54.7684 19.696 54.4509 20.048 54.1253 20.464C53.816 20.864 53.5473 21.248 53.3194 21.616C53.2217 21.872 53.0996 22.104 52.9531 22.312L52.0739 23.464C51.9274 23.656 51.8053 23.88 51.7076 24.136C51.5448 24.376 51.3576 24.64 51.1459 24.928C50.9505 25.216 50.7308 25.504 50.4865 25.792C50.2586 26.08 50.0225 26.36 49.7783 26.632C49.5341 26.888 49.2899 27.096 49.0457 27.256C48.8666 27.352 48.6631 27.48 48.4352 27.64C48.3212 27.752 48.191 27.816 48.0444 27.832C47.9142 27.848 47.7758 27.848 47.6293 27.832C47.4827 27.8 47.3281 27.768 47.1653 27.736C47.0187 27.704 46.8641 27.688 46.7013 27.688C46.4896 27.688 46.2943 27.64 46.1152 27.544C45.9361 27.432 45.7733 27.296 45.6267 27.136C45.4802 26.96 45.3337 26.776 45.1872 26.584C45.0569 26.376 44.9348 26.184 44.8208 26.008C44.3324 25.288 44.1208 24.52 44.1859 23.704C44.2022 23.512 44.2103 23.328 44.2103 23.152V22.624C44.2103 21.28 44.5278 19.984 45.1627 18.736C45.293 18.512 45.407 18.28 45.5046 18.04C45.6186 17.784 45.7488 17.536 45.8954 17.296C46.0907 16.96 46.2861 16.616 46.4815 16.264C46.6931 15.896 46.978 15.6 47.3362 15.376C47.5804 15.2 47.8002 15.008 47.9956 14.8C48.191 14.576 48.4026 14.368 48.6305 14.176C48.6957 14.112 48.7689 14.064 48.8503 14.032C48.948 13.984 49.062 13.92 49.1922 13.84C49.2248 14.048 49.2492 14.232 49.2655 14.392C49.2981 14.536 49.3225 14.68 49.3387 14.824C49.3713 15 49.3876 15.184 49.3876 15.376C49.4039 15.552 49.4364 15.728 49.4853 15.904C49.6155 16.368 49.7702 16.632 49.9493 16.696C50.1446 16.744 50.4214 16.624 50.7796 16.336C50.8122 16.304 50.8447 16.28 50.8773 16.264C50.9098 16.232 50.9343 16.192 50.9505 16.144C51.8623 15.248 52.3263 14.192 52.3425 12.976C52.3588 12.704 52.3425 12.424 52.2937 12.136C52.2611 11.848 52.139 11.6 51.9274 11.392C51.6995 11.136 51.4471 10.912 51.1703 10.72C50.8936 10.512 50.5924 10.352 50.2668 10.24L50.0225 10.192C49.9574 10.16 49.8842 10.152 49.8028 10.168C48.1421 10.36 46.8397 11.176 45.8954 12.616C45.4884 13.224 45.1139 13.856 44.772 14.512C44.4464 15.168 44.1126 15.824 43.7707 16.48C43.6893 16.704 43.5998 16.912 43.5021 17.104C43.4207 17.296 43.3393 17.504 43.2579 17.728C43.1439 18.096 43.0381 18.472 42.9404 18.856C42.8427 19.24 42.7451 19.616 42.6474 19.984C42.5985 20.208 42.5415 20.424 42.4764 20.632C42.4113 20.84 42.3462 21.056 42.2811 21.28L42.2322 21.52C42.2322 21.584 42.2159 21.656 42.1834 21.736L42.0368 22.792L41.9392 23.848C41.9066 24.136 41.8822 24.424 41.8659 24.712C41.8496 25 41.8333 25.296 41.8171 25.6C41.8171 25.696 41.8415 25.8 41.8903 25.912C41.9392 26.024 41.988 26.144 42.0368 26.272C42.0694 26.352 42.1101 26.44 42.1589 26.536C42.2078 26.616 42.2404 26.704 42.2566 26.8C42.3218 27.2 42.4439 27.56 42.6229 27.88C42.8183 28.184 43.03 28.48 43.2579 28.768C43.4044 28.944 43.5591 29.104 43.7219 29.248C43.8847 29.392 44.0557 29.504 44.2347 29.584C44.8046 29.824 45.3744 29.944 45.9442 29.944C46.514 29.944 47.0839 29.848 47.6537 29.656C48.1421 29.48 48.5898 29.272 48.9969 29.032C49.4202 28.792 49.819 28.512 50.1935 28.192C50.3075 28.112 50.4296 28.032 50.5598 27.952C50.6901 27.872 50.7877 27.776 50.8529 27.664C51.211 27.12 51.6018 26.664 52.0251 26.296C52.4484 25.912 52.8717 25.488 53.295 25.024C53.588 24.704 53.8974 24.344 54.223 23.944Z" fill="#9895B2"/>
<path d="M55.5692 27.928C55.7972 28.648 56.3426 29.016 57.2055 29.032H57.3031C57.352 29.048 57.4008 29.04 57.4497 29.008C57.873 28.832 58.1579 28.616 58.3044 28.36C58.4509 28.12 58.4265 27.752 58.2311 27.256C58.1823 27.128 58.1253 27 58.0602 26.872C58.0114 26.744 57.9869 26.616 57.9869 26.488C57.8241 25.432 57.8648 24.368 58.109 23.296C58.3532 22.224 58.7114 21.216 59.1836 20.272C59.265 19.984 59.2568 19.728 59.1591 19.504C59.0777 19.264 58.8987 19.08 58.6219 18.952C58.3125 18.792 58.0114 18.736 57.7183 18.784C57.4252 18.832 57.1973 19.032 57.0345 19.384C56.9368 19.576 56.8717 19.768 56.8391 19.96L56.7415 20.536C56.6601 21.048 56.6031 21.56 56.5705 22.072C56.5542 22.584 56.4565 23.088 56.2775 23.584C56.2612 23.616 56.253 23.672 56.253 23.752C56.3019 23.944 56.3019 24.136 56.253 24.328L56.1065 24.856C56.0251 25.272 55.9274 25.68 55.8135 26.08C55.7158 26.464 55.6262 26.856 55.5448 27.256C55.4797 27.512 55.4878 27.736 55.5692 27.928Z" fill="#9895B2"/>
<path d="M56.7903 16.624C56.774 16.688 56.7577 16.736 56.7415 16.768C56.7415 17.008 56.7984 17.216 56.9124 17.392C57.0427 17.568 57.1973 17.712 57.3764 17.824C57.5555 17.92 57.7509 17.976 57.9625 17.992C58.1904 18.008 58.4021 17.984 58.5975 17.92C58.7277 17.888 58.8742 17.856 59.037 17.824C59.1998 17.776 59.3138 17.688 59.3789 17.56C59.4278 17.448 59.4522 17.376 59.4522 17.344L59.4766 17.296C59.4766 17.28 59.4848 17.256 59.501 17.224C59.5173 17.192 59.5499 17.112 59.5987 16.984C59.6964 16.744 59.7127 16.48 59.6476 16.192C59.5987 15.888 59.5173 15.608 59.4034 15.352C59.3545 15.208 59.2487 15.12 59.0859 15.088C58.9231 15.04 58.744 15.04 58.5486 15.088C58.3532 15.12 58.1579 15.192 57.9625 15.304C57.7834 15.416 57.6369 15.544 57.5229 15.688C57.3927 15.832 57.3031 15.92 57.2543 15.952C57.2055 15.984 57.1648 16 57.1322 16C57.0996 16 57.0671 16.024 57.0345 16.072C57.0019 16.104 56.945 16.208 56.8636 16.384C56.831 16.464 56.8066 16.544 56.7903 16.624Z" fill="#9895B2"/>
<path d="M65.3057 19.888C65.4359 20 65.5336 20.04 65.5988 20.008C65.7127 20.28 65.8837 20.472 66.1116 20.584C66.3395 20.696 66.5674 20.816 66.7954 20.944C66.8117 20.96 66.8524 20.968 66.9175 20.968C67.7478 20.904 68.2118 20.464 68.3095 19.648C68.3258 19.472 68.3258 19.296 68.3095 19.12C68.3095 18.928 68.3258 18.744 68.3583 18.568C68.4235 17.96 68.3095 17.376 68.0164 16.816C67.9513 16.688 67.8943 16.608 67.8455 16.576C67.471 16.384 67.0966 16.232 66.7221 16.12C66.3477 15.992 65.9488 16.04 65.5255 16.264C65.3464 16.344 65.1755 16.432 65.0126 16.528C64.8661 16.624 64.7359 16.76 64.6219 16.936C64.4917 17.16 64.337 17.368 64.1579 17.56C63.9788 17.752 63.7997 17.96 63.6206 18.184L63.4741 17.656C63.295 17.192 62.9857 16.936 62.5461 16.888C62.367 16.856 62.1717 16.864 61.96 16.912C61.7646 16.96 61.6018 17.08 61.4716 17.272C61.3413 17.48 61.2274 17.696 61.1297 17.92C61.0483 18.144 60.9913 18.384 60.9587 18.64C60.9425 18.912 60.918 19.176 60.8855 19.432L60.7878 20.2L60.5436 21.76C60.511 22.016 60.4947 22.272 60.4947 22.528C60.4947 22.784 60.454 23.032 60.3726 23.272C60.3075 23.528 60.2342 23.776 60.1528 24.016C60.0714 24.256 60.0145 24.512 59.9819 24.784C59.9493 25.056 59.8924 25.336 59.8109 25.624C59.7458 25.896 59.697 26.168 59.6644 26.44C59.6319 26.664 59.6563 26.88 59.7377 27.088C59.8354 27.296 59.9656 27.472 60.1284 27.616C60.2912 27.76 60.4785 27.864 60.6901 27.928C60.9018 27.992 61.1215 27.992 61.3495 27.928C61.6425 27.832 61.9356 27.68 62.2286 27.472C62.3914 27.36 62.5054 27.224 62.5705 27.064C62.6519 26.888 62.6764 26.696 62.6438 26.488C62.6112 26.328 62.5868 26.176 62.5705 26.032L62.5217 25.552C62.4891 25.296 62.4647 25.048 62.4484 24.808L62.3996 24.04C62.3996 23.944 62.4159 23.856 62.4484 23.776C62.4973 23.68 62.5461 23.592 62.595 23.512C62.6438 23.448 62.7008 23.296 62.7659 23.056C62.831 22.816 62.8961 22.56 62.9613 22.288C63.0427 22.016 63.1241 21.768 63.2055 21.544C63.2869 21.304 63.352 21.16 63.4008 21.112C63.5962 20.84 63.7672 20.592 63.9137 20.368C64.0602 20.128 64.1905 19.936 64.3044 19.792C64.4184 19.648 64.5324 19.568 64.6463 19.552C64.7766 19.52 64.915 19.584 65.0615 19.744C65.094 19.712 65.1755 19.76 65.3057 19.888Z" fill="#9895B2"/>
<path d="M71.3469 21.856C71.4283 21.792 71.5016 21.72 71.5667 21.64C71.5993 21.672 71.64 21.688 71.6888 21.688C71.6237 21.944 71.6481 22.144 71.7621 22.288C71.8923 22.432 72.0307 22.568 72.1772 22.696C72.4377 22.92 72.7389 23.008 73.0808 22.96C73.4227 22.912 73.6751 22.744 73.8379 22.456C74.0007 22.184 74.1391 21.912 74.253 21.64L74.6438 20.776C74.774 20.472 74.7252 20.192 74.4972 19.936L73.6425 18.976C73.3657 18.704 73.0727 18.56 72.7634 18.544C72.6982 18.544 72.6168 18.528 72.5191 18.496C72.2424 18.4 71.99 18.384 71.7621 18.448C71.5504 18.512 71.3306 18.616 71.1027 18.76C71.0376 18.808 70.9806 18.864 70.9318 18.928C70.8829 18.976 70.8259 19.016 70.7608 19.048C70.4678 19.224 70.2154 19.432 70.0038 19.672C69.8084 19.912 69.6456 20.184 69.5153 20.488L69.2711 20.872C69.206 21 69.1327 21.128 69.0513 21.256C68.9699 21.368 68.9048 21.48 68.856 21.592C68.8071 21.704 68.7827 21.832 68.7827 21.976C68.799 22.04 68.7909 22.104 68.7583 22.168C68.742 22.232 68.7176 22.304 68.685 22.384C68.6525 22.448 68.6199 22.504 68.5873 22.552C68.5548 22.6 68.5304 22.664 68.5141 22.744L68.221 24.04C68.1233 24.472 68.0338 24.904 67.9524 25.336C67.9361 25.448 67.9524 25.576 68.0012 25.72C68.0501 25.88 68.0989 26.032 68.1478 26.176C68.1966 26.32 68.2536 26.464 68.3187 26.608C68.4978 27.04 68.7583 27.36 69.1002 27.568C69.4584 27.76 69.841 27.92 70.248 28.048C70.2805 28.08 70.3212 28.088 70.3701 28.072C70.4352 28.056 70.4922 28.04 70.541 28.024C70.8504 28.008 71.1841 27.96 71.5423 27.88C71.7377 27.848 71.933 27.808 72.1284 27.76C72.3401 27.712 72.5436 27.648 72.7389 27.568C72.9669 27.456 73.1867 27.336 73.3983 27.208C73.61 27.08 73.8135 26.936 74.0088 26.776L74.5461 26.344C74.7415 26.184 74.8229 25.952 74.7903 25.648C74.4158 25.52 74.0739 25.52 73.7646 25.648C73.6507 25.712 73.5448 25.752 73.4471 25.768L72.7145 25.864C72.4703 25.896 72.2342 25.936 72.0063 25.984C71.7784 26.032 71.5586 26.048 71.3469 26.032C71.1516 26.016 70.9399 25.992 70.712 25.96C70.6306 25.944 70.5573 25.912 70.4922 25.864C70.4271 25.8 70.3782 25.736 70.3457 25.672C70.1991 25.448 70.1177 25.224 70.1014 25C70.1014 24.76 70.1421 24.52 70.2236 24.28C70.3538 23.896 70.5003 23.528 70.6631 23.176C70.8259 22.808 71.005 22.44 71.2004 22.072C71.233 21.992 71.2818 21.92 71.3469 21.856Z" fill="#9895B2"/>
<path d="M76.4479 29.152C76.6596 29.168 76.8631 29.192 77.0585 29.224C77.1399 29.144 77.1969 29.072 77.2294 29.008C77.2783 28.944 77.3352 28.888 77.4004 28.84C77.6283 28.68 77.7748 28.488 77.8399 28.264C77.9051 28.04 77.9376 27.792 77.9376 27.52V25.216C77.9376 25.056 77.9621 24.928 78.0109 24.832C78.076 24.656 78.133 24.432 78.1818 24.16C78.2307 23.888 78.2632 23.608 78.2795 23.32C78.3121 23.016 78.3365 22.728 78.3528 22.456C78.3691 22.184 78.3854 21.952 78.4016 21.76C78.4342 21.328 78.4505 20.896 78.4505 20.464C78.4668 20.016 78.5319 19.576 78.6458 19.144C78.6784 19.048 78.6784 18.936 78.6458 18.808C78.597 18.632 78.5889 18.464 78.6214 18.304C78.654 18.144 78.6947 17.976 78.7435 17.8L79.0366 16.696C79.1343 16.312 79.2401 15.936 79.3541 15.568C79.3866 15.456 79.4273 15.352 79.4762 15.256C79.5413 15.144 79.6064 15.04 79.6715 14.944C79.7529 14.736 79.8425 14.536 79.9402 14.344C80.0541 14.152 80.1518 13.952 80.2332 13.744C80.2658 13.632 80.2821 13.52 80.2821 13.408C80.2983 13.296 80.2983 13.176 80.2821 13.048C80.2658 12.904 80.2169 12.776 80.1355 12.664C80.0704 12.536 79.9564 12.44 79.7936 12.376C79.5494 12.248 79.2645 12.232 78.9389 12.328C78.6296 12.424 78.3854 12.6 78.2063 12.856C78.0435 13.096 77.9051 13.352 77.7911 13.624C77.6934 13.88 77.5876 14.144 77.4736 14.416C77.2945 14.832 77.1562 15.264 77.0585 15.712C76.9771 16.16 76.855 16.6 76.6922 17.032C76.6922 17.048 76.684 17.064 76.6677 17.08V17.128C76.7003 17.368 76.6922 17.608 76.6433 17.848C76.6108 18.088 76.5619 18.336 76.4968 18.592C76.4154 19.008 76.3421 19.424 76.277 19.84C76.2119 20.24 76.1386 20.648 76.0572 21.064C76.0084 21.368 75.9595 21.664 75.9107 21.952C75.8618 22.24 75.8293 22.536 75.813 22.84C75.813 22.968 75.8049 23.144 75.7886 23.368C75.7723 23.592 75.7397 23.824 75.6909 24.064C75.6583 24.288 75.6095 24.512 75.5444 24.736C75.4955 24.944 75.4385 25.104 75.3734 25.216L75.3002 25.384L75.1536 26.296C75.1211 26.584 75.0641 26.88 74.9827 27.184C74.9338 27.44 74.942 27.68 75.0071 27.904C75.0885 28.112 75.1943 28.32 75.3246 28.528C75.406 28.64 75.4874 28.744 75.5688 28.84C75.6502 28.936 75.7479 29 75.8618 29.032C76.0572 29.096 76.2526 29.136 76.4479 29.152Z" fill="#9895B2"/>
<path fill-rule="evenodd" clip-rule="evenodd" d="M82.866 25.528C82.6869 25.544 82.4997 25.552 82.3043 25.552L82.1822 25.384C82.2148 25.368 82.2555 25.36 82.3043 25.36C82.3531 25.344 82.3938 25.32 82.4264 25.288C83.0125 24.76 83.5905 24.216 84.1603 23.656C84.3882 23.416 84.608 23.176 84.8197 22.936L85.5035 22.168C85.6174 22.024 85.6907 21.848 85.7233 21.64C85.7558 21.448 85.7721 21.256 85.7721 21.064V20.464C85.7721 20.096 85.6418 19.792 85.3814 19.552C85.1372 19.312 84.836 19.2 84.4778 19.216C84.2824 19.216 84.0952 19.192 83.9161 19.144C83.737 19.096 83.5579 19.056 83.3788 19.024C83.216 18.976 83.0451 18.96 82.866 18.976C82.6869 18.992 82.4915 19.064 82.2799 19.192C82.2473 19.224 82.2066 19.248 82.1578 19.264C82.1089 19.264 82.0682 19.272 82.0357 19.288C81.8077 19.368 81.6042 19.472 81.4251 19.6C81.2623 19.728 81.1077 19.88 80.9611 20.056C80.7658 20.248 80.5867 20.456 80.4239 20.68C80.2611 20.888 80.1145 21.12 79.9843 21.376L79.8378 21.76C79.8052 21.872 79.7482 21.984 79.6668 22.096C79.3738 22.528 79.1703 22.984 79.0563 23.464C78.9586 23.944 78.8935 24.44 78.8609 24.952C78.8284 25.368 78.8772 25.76 79.0075 26.128C79.1377 26.496 79.3575 26.776 79.6668 26.968C79.9762 27.144 80.3018 27.288 80.6437 27.4C81.1484 27.576 81.6286 27.608 82.0845 27.496C82.5567 27.368 83.0288 27.192 83.5009 26.968C83.6312 26.904 83.7451 26.84 83.8428 26.776C83.9568 26.696 84.0789 26.616 84.2091 26.536C84.2743 26.504 84.3313 26.464 84.3801 26.416C84.4289 26.368 84.4778 26.328 84.5266 26.296C84.6243 26.216 84.7139 26.144 84.7953 26.08L85.0883 25.888C85.479 25.632 85.8779 25.4 86.2849 25.192C86.692 24.968 87.0827 24.712 87.4572 24.424L87.9944 23.992C88.0921 23.896 88.1735 23.84 88.2386 23.824C88.6294 23.712 88.9387 23.52 89.1666 23.248C89.3946 22.96 89.6143 22.672 89.826 22.384C89.8911 22.304 89.94 22.216 89.9725 22.12C90.0214 22.008 90.0051 21.896 89.9237 21.784C89.6469 21.736 89.3783 21.8 89.1178 21.976L88.3363 22.456L88.1898 22.552C88.1572 22.584 88.1165 22.616 88.0677 22.648C87.8886 22.776 87.7014 22.904 87.506 23.032L86.9687 23.416C86.7082 23.576 86.4477 23.728 86.1873 23.872C85.9268 24.016 85.6744 24.168 85.4302 24.328C85.1697 24.504 84.9011 24.672 84.6243 24.832C84.3638 24.976 84.0789 25.088 83.7696 25.168L83.5742 25.216C83.5091 25.232 83.4521 25.256 83.4033 25.288C83.2404 25.416 83.0614 25.496 82.866 25.528ZM81.6694 22.024C81.8973 21.704 82.2962 21.472 82.866 21.328C82.8497 21.472 82.7764 21.64 82.6462 21.832C82.5322 22.008 82.3776 22.184 82.1822 22.36C82.0031 22.52 81.8077 22.672 81.5961 22.816C81.4007 22.96 81.2053 23.064 81.01 23.128C81.2379 22.696 81.4577 22.328 81.6694 22.024Z" fill="#9895B2"/>
</svg>
