<?xml version="1.0" encoding="UTF-8" standalone="no"?><svg width="134" height="40" viewBox="0 0 134 40" fill="none" xmlns="http://www.w3.org/2000/svg">
<path d="M32.1335 11L16.0667 2L0 11V29L16.0667 38L32.1335 29V11Z" fill="#9895B2"/>
<path d="M56.973 28L55.1892 25.4561V14.104L56.9965 11.5601H50.2968L52.0561 14.0801V18.928H44.8023V14.104L46.6096 11.5601H39.9099L41.6692 14.0801V25.4561L39.8854 28H46.5851L44.8023 25.4561V20.0081H52.0561V25.4561L50.2733 28H56.973Z" fill="#9895B2"/>
<path fill-rule="evenodd" clip-rule="evenodd" d="M68.5759 21.2319V21.208H68.5994L68.5759 21.1599C68.5514 17.9199 66.7921 16 63.9237 16C59.9953 16 58.0674 19.552 58.0674 22.6479C58.0674 25.5281 59.8512 28.3359 63.0078 28.3359C65.8762 28.3359 67.5874 26.1279 68.4553 23.9441L68.0934 23.8C67.7316 24.8081 66.2861 25.624 64.6475 25.624C62.7676 25.624 61.1044 24.3279 60.8396 21.2319H68.5759ZM65.4663 20.2959V20.512H60.7906V20.344C60.7906 18.9041 61.5379 16.72 63.3697 16.72C64.4298 16.72 65.4663 17.728 65.4663 20.2959Z" fill="#9895B2"/>
<path d="M76.0307 28H82.8991L80.875 26.4399L77.0192 21.3999L80.0797 17.752L82.2244 16.24H77.1633L78.4891 17.7759L76.3445 20.512L74.2479 17.7759L75.7894 16.24H69.2104L70.9696 17.752L74.4881 22.3601L71.0902 26.488L68.9456 28H73.9821L72.6573 26.4641L75.2118 23.3201L77.5732 26.416L76.0307 28Z" fill="#9895B2"/>
<path fill-rule="evenodd" clip-rule="evenodd" d="M90.0852 25.9839V28H94.7844L93.0006 26.4399H92.9771V18.304L93.5076 16.24H83.5777V20.0801H83.7463C84.976 18.2561 86.1322 16.9121 88.0601 16.9121C90.0371 16.9121 90.0852 18.3999 90.0852 20.3201C85.9155 21.7839 82.9991 23.032 82.9991 25.48C82.9991 27.4241 84.2288 28.24 85.892 28.24C87.4825 28.24 89.1692 26.8721 90.0852 25.9839ZM90.0852 20.9919V25.3359C89.4821 25.96 88.7348 26.344 87.9886 26.344C86.9756 26.344 86.1803 25.8401 86.1803 24.688C86.1803 23.5359 86.3009 22.5039 90.0852 20.9919Z" fill="#9895B2"/>
<path fill-rule="evenodd" clip-rule="evenodd" d="M105.638 13.8879L105.541 13.864L102.48 16.072C102.12 16 101.71 15.9519 101.252 15.9519C97.5164 15.9519 95.8533 18.4241 95.8533 20.488C95.8533 21.9041 96.6005 23.248 98.094 23.8721C97.1546 24.448 95.8533 25.2639 95.8533 26.728C95.8533 27.616 96.6005 28.384 97.2987 28.6721C96.5034 29.0081 95.2511 29.6799 95.2511 30.856C95.2511 32.5359 96.8172 33.5681 100.071 33.5681C104.023 33.5681 106.168 31.0481 106.168 28.2639C106.168 27.448 105.879 26.728 105.614 26.2959H99.1305C98.2872 26.2 97.8057 25.864 97.8057 25.144C97.8057 24.8604 98.2009 24.5078 98.5275 24.217L98.6971 24.064C99.1305 24.1841 99.613 24.2561 100.143 24.2561C103.879 24.2561 105.59 21.688 105.59 19.624C105.59 18.76 105.301 17.9441 104.746 17.2959C105.276 16.1919 105.517 15.3521 105.638 13.8879ZM98.9383 19.0239C98.9383 18.064 99.0344 16.6479 100.215 16.6479C101.589 16.6479 102.48 18.592 102.48 21.064C102.48 22.0239 102.336 23.584 101.156 23.584C99.7817 23.584 98.9383 21.4961 98.9383 19.0239ZM97.8773 29.0081H104.023C104.138 29.1567 104.22 29.3381 104.274 29.5522C104.334 29.7874 104.36 30.0618 104.36 30.376C104.36 31.5281 103.107 33.0161 100.408 33.0161C98.2391 33.0161 97.082 32.2241 97.082 30.6399C97.082 29.968 97.3477 29.416 97.8773 29.0081Z" fill="#9895B2"/>
<path fill-rule="evenodd" clip-rule="evenodd" d="M112.41 28.2881C116.893 28.2881 118.99 24.688 118.99 21.592C118.99 18.7119 117.182 15.9519 113.761 15.9519C109.277 15.9519 107.181 19.552 107.181 22.6479C107.181 25.5281 108.988 28.2881 112.41 28.2881ZM110.241 20.4641C110.241 19.0239 110.459 16.864 112.458 16.864C114.579 16.864 115.978 20.032 115.978 23.7759C115.978 25.0239 115.52 27.376 113.736 27.376C111.615 27.376 110.241 24.208 110.241 20.4641Z" fill="#9895B2"/>
<path d="M127.541 28H134L132.168 25.936V19.792C132.168 17.5359 131.011 15.9519 128.553 15.9519C127.107 15.9519 125.54 16.696 124.576 18.1841V16L120.046 17.6079L121.684 19.4561V25.936L119.853 28H126.312L124.576 25.936V19C125.348 17.968 126.264 17.584 127.155 17.584C129.011 17.584 129.276 18.76 129.276 20.6079V25.936L127.541 28Z" fill="#9895B2"/>
</svg>
