<?xml version="1.0" encoding="UTF-8" standalone="no"?><svg width="40" height="40" fill="none" xmlns="http://www.w3.org/2000/svg"><path fill-rule="evenodd" clip-rule="evenodd" d="M20 32c6.627 0 12-5.373 12-12S26.627 8 20 8 8 13.373 8 20s5.373 12 12 12zm0 4c8.837 0 16-7.163 16-16S28.837 4 20 4 4 11.163 4 20s7.163 16 16 16z" fill="#7111D4"/><path fill-rule="evenodd" clip-rule="evenodd" d="M24 28a8 8 0 1 0 0-16 8 8 0 0 0 0 16zm0 4c6.627 0 12-5.373 12-12S30.627 8 24 8s-12 5.373-12 12 5.373 12 12 12z" fill="#7111D4"/><path fill-rule="evenodd" clip-rule="evenodd" d="M24 28a4 4 0 1 0 0-8 4 4 0 0 0 0 8zm0 4a8 8 0 1 0 0-16 8 8 0 0 0 0 16z" fill="#7111D4"/></svg>