<?xml version="1.0" encoding="UTF-8" standalone="no"?><svg width="40" height="40" fill="none" xmlns="http://www.w3.org/2000/svg"><path fill-rule="evenodd" clip-rule="evenodd" d="M20 8.162 9.646 14.08v11.842L20 31.837l10.354-5.916V14.079L20 8.162zM34 12 20 4 6 12v16l14 8 14-8V12z" fill="#1F37AF"/><path fill-rule="evenodd" clip-rule="evenodd" d="M20.001 8.162 9.646 14.079v3.769l8.093 4.62 5.688-3.25v-9.101l-3.426-1.955zm7.072-.126L20 4 6 12v7.928l11.74 6.703 9.333-5.334V8.036z" fill="#FF4DA6"/><path fill-rule="evenodd" clip-rule="evenodd" d="m21.386 15.728-2.042 1.164v4.66l4.083-2.334v-2.326l-2.041-1.164zm5.687-.917-5.687-3.243-5.688 3.243v10.652l2.042 1.168 9.333-5.334v-6.486z" fill="#4D6AFF"/></svg>