<?xml version="1.0" encoding="UTF-8" standalone="no"?><svg width="40" height="40" fill="none" xmlns="http://www.w3.org/2000/svg"><path fill-rule="evenodd" clip-rule="evenodd" d="M4 20c0-8.837 7.163-16 16-16s16 7.163 16 16-7.163 16-16 16S4 28.837 4 20zm9.212-6.788a9.6 9.6 0 0 0 13.576 13.576L13.212 13.212z" fill="#F37"/><path d="M19.996 20.004c1.888 1.888.55 5.116-2.12 5.116a2.997 2.997 0 0 1-2.996-2.997c0-2.67 3.228-4.007 5.116-2.12z" fill="#F37"/><path d="M20.004 19.996c-1.888-1.888-.55-5.116 2.12-5.116a2.997 2.997 0 0 1 2.996 2.997c0 2.67-3.228 4.007-5.116 2.12z" fill="#FFFF67"/></svg>