<?xml version="1.0" encoding="UTF-8" standalone="no"?><svg width="144" height="40" viewBox="0 0 144 40" fill="none" xmlns="http://www.w3.org/2000/svg">
<path d="M0 4H32V36H0V4Z" fill="#9895B2"/>
<path d="M129.674 12H126.745V23.894C126.745 24.6413 127.018 25.2873 127.563 25.832C128.108 26.3767 128.755 26.649 129.503 26.649H131.899V23.742H129.674V12Z" fill="#9895B2"/>
<path d="M83.4481 18.536H87.5365V15.629H83.4481V12.361H80.5386V23.894C80.5386 24.6413 80.8048 25.2873 81.3373 25.832C81.8824 26.3767 82.5416 26.649 83.3149 26.649H87.5365V23.742H83.4481V18.536Z" fill="#9895B2"/>
<path fill-rule="evenodd" clip-rule="evenodd" d="M54.6916 19.334V15.8C54.6916 15.0273 54.4127 14.3687 53.8549 13.824C53.2971 13.2667 52.6316 12.988 51.8582 12.988H41V26.649H43.9475V22.26C43.9602 22.2727 43.9792 22.279 44.0046 22.279C44.0046 22.203 43.9855 22.165 43.9475 22.165L47.8648 22.146L51.6491 26.649H54.6916V25.642L51.7251 22.146H51.8582C52.6316 22.146 53.2971 21.8737 53.8549 21.329C54.4127 20.7717 54.6916 20.1067 54.6916 19.334ZM43.9475 19.182V15.933H51.7061V19.182H43.9475Z" fill="#9895B2"/>
<path fill-rule="evenodd" clip-rule="evenodd" d="M66.4794 16.446C65.9469 15.9013 65.3004 15.629 64.5397 15.629H58.8729C58.1249 15.629 57.4784 15.9013 56.9333 16.446C56.3881 16.9907 56.1156 17.6367 56.1156 18.384V23.894C56.1156 24.6413 56.3881 25.2873 56.9333 25.832C57.4784 26.3767 58.1249 26.649 58.8729 26.649H67.2971V23.742H59.025V22.602H67.2971V18.384C67.2971 17.6367 67.0245 16.9907 66.4794 16.446ZM64.3876 20.056H59.025V18.536H64.3876V20.056Z" fill="#9895B2"/>
<path d="M79.4613 18.536H71.2083V23.742H79.4803V26.649H71.0561C70.3082 26.649 69.6616 26.3767 69.1165 25.832C68.5713 25.2873 68.2988 24.6413 68.2988 23.894V18.384C68.2988 17.6367 68.5713 16.9907 69.1165 16.446C69.6616 15.9013 70.3082 15.629 71.0561 15.629H79.4613V18.536Z" fill="#9895B2"/>
<path fill-rule="evenodd" clip-rule="evenodd" d="M97.5986 15.629C98.3592 15.629 99.0058 15.9013 99.5382 16.446C100.083 16.9907 100.356 17.6367 100.356 18.384V26.649H91.9317C91.1711 26.649 90.5182 26.3767 89.9731 25.832C89.4406 25.2873 89.1744 24.6413 89.1744 23.894V19.676H97.4464V18.536H89.1744V15.629H97.5986ZM97.4464 23.742V22.222H92.0839V23.742H97.4464Z" fill="#9895B2"/>
<path d="M112.112 16.446C111.58 15.9013 110.933 15.629 110.173 15.629H101.748V26.649H104.658V18.536H110.021V26.649H112.93V18.384C112.93 17.6367 112.657 16.9907 112.112 16.446Z" fill="#9895B2"/>
<path fill-rule="evenodd" clip-rule="evenodd" d="M125.256 28.245C125.256 29.005 124.984 29.651 124.439 30.183C123.906 30.7277 123.26 31 122.499 31H115.805V28.074H122.347V26.649H116.832C116.072 26.649 115.419 26.3767 114.874 25.832C114.328 25.2873 114.056 24.6413 114.056 23.894V18.384C114.056 17.6367 114.328 16.9907 114.874 16.446C115.419 15.9013 116.072 15.629 116.832 15.629H122.499C123.26 15.629 123.906 15.9013 124.439 16.446C124.984 16.9907 125.256 17.6367 125.256 18.384V28.245ZM116.965 18.536V23.742H122.347V18.536H116.965Z" fill="#9895B2"/>
<path fill-rule="evenodd" clip-rule="evenodd" d="M141.243 15.629C142.003 15.629 142.65 15.9013 143.182 16.446C143.727 16.9907 144 17.6367 144 18.384V22.602H135.728V23.742H144V26.649H135.576C134.828 26.649 134.181 26.3767 133.636 25.832C133.091 25.2873 132.818 24.6413 132.818 23.894V18.384C132.818 17.6367 133.091 16.9907 133.636 16.446C134.181 15.9013 134.828 15.629 135.576 15.629H141.243ZM135.728 20.056H141.091V18.536H135.728V20.056Z" fill="#9895B2"/>
</svg>
