<?xml version="1.0" encoding="UTF-8" standalone="no"?><svg width="40" height="40" fill="none" xmlns="http://www.w3.org/2000/svg"><path d="M27 27c5.337-1.285 9-3.937 9-7s-3.663-5.715-9-7c.549 2.106.858 4.484.858 7s-.309 4.894-.858 7zM13 27c-5.337-1.285-9-3.937-9-7s3.663-5.715 9-7c-.549 2.106-.858 4.484-.858 7s.309 4.894.858 7z" fill="#6C07F9"/><path d="M13 27c1.285 5.337 3.937 9 7 9s5.715-3.663 7-9c-2.106.549-4.484.858-7 .858s-4.894-.309-7-.858zM13 13c1.285-5.337 3.937-9 7-9s5.715 3.663 7 9c-2.106-.549-4.484-.858-7-.858s-4.894.309-7 .858z" fill="#FF9500"/></svg>