<?xml version="1.0" encoding="UTF-8" standalone="no"?><svg width="40" height="40" fill="none" xmlns="http://www.w3.org/2000/svg"><path d="M9.808 30.192c-4.222-4.22-6.332-6.331-5.697-8.145.038-.107.081-.213.13-.315C5.076 20 8.06 20 14.03 20c2.743 0 4.114 0 4.994.817.055.051.109.105.16.16.817.88.817 2.251.817 4.994 0 5.97 0 8.954-1.732 9.787a3.07 3.07 0 0 1-.315.13c-1.814.636-3.924-1.474-8.145-5.695z" fill="#DF3"/><path d="M17.808 22.192c-4.222-4.22-6.332-6.331-5.697-8.145a3.07 3.07 0 0 1 .13-.315C13.076 12 16.06 12 22.03 12c2.743 0 4.114 0 4.994.817.055.051.109.105.16.16.817.88.817 2.251.817 4.994 0 5.97 0 8.954-1.732 9.787a3.07 3.07 0 0 1-.315.13c-1.814.636-3.924-1.475-8.145-5.696z" fill="#8C0"/><path d="M25.808 14.193C21.587 9.97 19.476 7.86 20.11 6.046c.038-.107.081-.213.13-.315C21.076 4 24.06 4 30.03 4c2.743 0 4.114 0 4.994.817.055.051.109.105.16.16.817.88.817 2.251.817 4.994 0 5.97 0 8.954-1.732 9.787a3.07 3.07 0 0 1-.315.13c-1.814.636-3.924-1.475-8.146-5.696z" fill="#4D9900"/></svg>