<?xml version="1.0" encoding="UTF-8" standalone="no"?><svg width="40" height="40" fill="none" xmlns="http://www.w3.org/2000/svg"><path d="M33.402 6.598c3.748 3.747 3.393 10.178-.754 14.324L25.11 28.46l-13.57-13.57 7.54-7.54c4.146-4.146 10.576-4.5 14.323-.753z" fill="#A4D411"/><path d="M17.57 36 4 22.43c4.164-4.164 10.577-4.502 14.324-.754 3.747 3.747 3.41 10.16-.754 14.324z" fill="#F25A80"/><path d="m31.895 35.246-13.57-13.57c4.163-4.164 10.576-4.501 14.323-.754 3.748 3.747 3.41 10.16-.754 14.324zM18.324 21.676 4.754 8.106c4.164-4.164 10.577-4.502 14.324-.754 3.747 3.747 3.41 10.16-.754 14.324z" fill="#A4D411"/></svg>