<?xml version="1.0" encoding="UTF-8" standalone="no"?><svg width="86" height="40" viewBox="0 0 86 40" fill="none" xmlns="http://www.w3.org/2000/svg">
<path d="M21.4089 13.9868L17.3202 1L13.2314 13.9868H0L10.7045 22.0132L6.61572 35L17.3202 26.9737L28.0247 35L23.9359 22.0132L34.6404 13.9868H21.4089Z" fill="#9895B2"/>
<path d="M41.1548 23.76C40.846 23.424 40.5669 23.028 40.3175 22.572L38.2153 24.084C38.4884 24.708 38.8804 25.272 39.3911 25.776C39.9018 26.268 40.5015 26.664 41.1904 26.964C41.8911 27.252 42.6453 27.396 43.4529 27.396C44.0467 27.396 44.6168 27.306 45.1632 27.126C45.7095 26.958 46.2024 26.706 46.6418 26.37C47.0931 26.034 47.4435 25.62 47.6929 25.128C47.9542 24.636 48.0848 24.066 48.0848 23.418C48.0848 22.89 47.9957 22.422 47.8176 22.014C47.6513 21.594 47.4197 21.228 47.1228 20.916C46.8378 20.604 46.4993 20.34 46.1074 20.124C45.7273 19.896 45.3176 19.698 44.8781 19.53C44.4505 19.386 44.0646 19.248 43.7201 19.116C43.3757 18.972 43.0847 18.834 42.8472 18.702C42.6215 18.558 42.4434 18.402 42.3127 18.234C42.194 18.054 42.1346 17.85 42.1346 17.622C42.1346 17.43 42.1821 17.262 42.2771 17.118C42.3721 16.974 42.5146 16.866 42.7047 16.794C42.9066 16.71 43.156 16.668 43.4529 16.668C43.7617 16.668 44.0527 16.728 44.3258 16.848C44.6109 16.956 44.8722 17.124 45.1097 17.352C45.3472 17.58 45.5491 17.844 45.7154 18.144L48.0136 16.848C47.7998 16.416 47.491 15.99 47.0872 15.57C46.6834 15.15 46.1786 14.802 45.5729 14.526C44.9672 14.25 44.2427 14.112 43.3995 14.112C42.6037 14.112 41.8733 14.256 41.2082 14.544C40.5431 14.832 40.0146 15.246 39.6227 15.786C39.2426 16.314 39.0526 16.956 39.0526 17.712C39.0526 18.336 39.1654 18.864 39.3911 19.296C39.6286 19.716 39.9196 20.082 40.264 20.394C40.6084 20.694 40.9707 20.94 41.3507 21.132C41.7308 21.324 42.0752 21.48 42.384 21.6C42.9897 21.84 43.4707 22.05 43.827 22.23C44.1952 22.398 44.4565 22.584 44.6109 22.788C44.7772 22.992 44.8603 23.25 44.8603 23.562C44.8603 23.814 44.795 24.036 44.6643 24.228C44.5456 24.408 44.3734 24.552 44.1477 24.66C43.922 24.756 43.6607 24.804 43.3638 24.804C42.9481 24.804 42.5503 24.714 42.1702 24.534C41.802 24.354 41.4636 24.096 41.1548 23.76Z" fill="#9895B2"/>
<path d="M50.335 14.4V17.136H53.7377V27H56.7663V17.136H60.1868V14.4H50.335Z" fill="#9895B2"/>
<path fill-rule="evenodd" clip-rule="evenodd" d="M64.5068 24.57L63.3449 27H59.9422L66.5159 13.608L73.0541 27H69.6158L68.4552 24.57H64.5068ZM65.1207 22.248H67.8971L66.5159 19.044L65.1207 22.248Z" fill="#9895B2"/>
<path fill-rule="evenodd" clip-rule="evenodd" d="M79.8002 22.662H78.8562V27H75.8632V14.4H80.3883C81.4572 14.4 82.3479 14.574 83.0605 14.922C83.785 15.27 84.3313 15.756 84.6995 16.38C85.0677 16.992 85.2518 17.706 85.2518 18.522C85.2518 19.326 85.0677 20.04 84.6995 20.664C84.3313 21.288 83.785 21.78 83.0605 22.14C82.9655 22.1864 82.8672 22.2297 82.7658 22.27L86 27H82.4548L79.8002 22.662ZM78.8562 16.992H80.1745C80.5783 16.992 80.9286 17.058 81.2256 17.19C81.5225 17.322 81.7422 17.508 81.8847 17.748C82.0391 17.988 82.1163 18.282 82.1163 18.63C82.1163 18.978 82.0391 19.278 81.8847 19.53C81.7422 19.77 81.5225 19.956 81.2256 20.088C80.9286 20.208 80.5783 20.268 80.1745 20.268H78.8562V16.992Z" fill="#9895B2"/>
</svg>
