<?xml version="1.0" encoding="UTF-8" standalone="no"?><svg width="106" height="40" viewBox="0 0 106 40" fill="none" xmlns="http://www.w3.org/2000/svg">
<path d="M39.0192 37L19.5096 3L0 37H39.0192Z" fill="#9895B2"/>
<path d="M38.3045 14.111V16.41H42.7918V28H45.289V16.41H49.7372V14.111H38.3045Z" fill="#9895B2"/>
<path d="M55.5429 20.59V18.576C54.0797 18.253 52.4214 18.576 51.8361 19.716L51.6995 18.633H49.5144V28H51.8946V23.44C51.8946 21.616 52.8896 20.59 54.6064 20.59H55.5429Z" fill="#9895B2"/>
<path d="M56.596 15.308C56.596 16.087 57.2008 16.695 58.0007 16.695C58.7811 16.695 59.4249 16.087 59.4249 15.308C59.4249 14.548 58.7811 13.94 58.0007 13.94C57.2008 13.94 56.596 14.548 56.596 15.308Z" fill="#9895B2"/>
<path d="M56.8107 18.614V28H59.1908V18.614H56.8107Z" fill="#9895B2"/>
<path fill-rule="evenodd" clip-rule="evenodd" d="M60.7627 25.321C60.7627 27.069 61.9918 28.247 64.0598 28.247C65.5815 28.247 66.7326 27.582 67.1423 26.613L67.3179 28H69.4054V22.3C69.4054 19.811 67.9227 18.329 65.2109 18.329C62.7136 18.329 60.9968 19.678 61.0163 21.692H63.0453C63.0258 20.723 63.7866 20.134 65.0938 20.134C66.2644 20.134 67.0838 20.628 67.0838 21.92V22.129L64.3329 22.338C62.1674 22.509 60.7627 23.497 60.7627 25.321ZM67.1033 24.2C67.1033 25.948 65.8547 26.499 64.8402 26.499C63.7671 26.499 63.1818 26.043 63.1818 25.226C63.1818 24.466 63.6891 24.01 65.0938 23.877L67.1033 23.706V24.2Z" fill="#9895B2"/>
<path d="M71.3705 28H73.7507V22.946C73.7507 20.989 75.0773 20.438 76.1113 20.438C76.9307 20.438 78.1403 20.761 78.1403 22.775V28H80.501V22.224C80.501 19.887 79.3694 18.329 76.8527 18.329C75.5455 18.329 74.3945 18.861 73.7702 19.83L73.5751 18.614H71.3705V28Z" fill="#9895B2"/>
<path fill-rule="evenodd" clip-rule="evenodd" d="M86.4558 18.329C84.0366 18.329 82.1832 19.849 82.1832 22.129C82.1832 23.326 82.6904 24.276 83.5488 24.903C82.5343 25.15 81.91 25.834 81.91 26.822C81.91 27.601 82.3392 28.19 83.0221 28.513C82.1246 28.779 81.6174 29.501 81.6174 30.356C81.6174 31.933 83.1977 32.636 86.1241 32.636C89.6358 32.617 91.6648 31.591 91.6648 29.634C91.6648 28 90.4357 26.936 88.0751 26.936H85.0706C84.0366 26.936 83.861 26.575 83.861 26.214C83.861 25.815 84.1341 25.53 84.7194 25.511C85.2852 25.701 85.9095 25.796 86.5728 25.796C89.1676 25.796 90.904 24.352 90.904 22.205C90.904 21.331 90.5138 20.419 89.9285 19.868C90.2992 19.431 90.9235 19.26 91.6258 19.336V17.455C90.2992 17.322 89.2652 17.911 88.8164 18.823C88.1921 18.519 87.3142 18.329 86.4558 18.329ZM86.5533 23.953C85.3047 23.972 84.4853 23.155 84.4853 22.072C84.4853 20.989 85.3047 20.172 86.5338 20.172C87.8214 20.172 88.5823 21.084 88.5823 22.091C88.5823 23.117 87.8214 23.953 86.5533 23.953ZM86.4168 30.622C84.817 30.622 83.5683 30.508 83.5683 29.672C83.5683 29.216 83.9 28.836 84.6609 28.817H87.8605C88.875 28.817 89.3432 29.045 89.3432 29.672C89.3432 30.356 88.3092 30.622 86.4168 30.622Z" fill="#9895B2"/>
<path d="M92.8826 28H95.2628V13.864H92.8826V28Z" fill="#9895B2"/>
<path fill-rule="evenodd" clip-rule="evenodd" d="M101.454 18.329C98.6839 18.329 96.7915 20.286 96.7915 23.307C96.7915 26.29 98.6644 28.247 101.454 28.247C103.776 28.247 105.59 26.898 106 24.903H103.795C103.561 25.72 102.644 26.29 101.493 26.29C100.05 26.29 99.1521 25.473 99.0936 23.972H105.961V23.269C105.961 20.286 104.264 18.329 101.454 18.329ZM103.6 22.49H99.1326C99.1521 21.065 100.069 20.248 101.376 20.248C102.664 20.248 103.581 21.027 103.6 22.49Z" fill="#9895B2"/>
</svg>
