<?xml version="1.0" encoding="UTF-8" standalone="no"?><svg width="40" height="40" fill="none" xmlns="http://www.w3.org/2000/svg"><path d="M25 15h10c0-5.523-4.477-10-10-10v10z" fill="#1A6847"/><path d="M15 25H5c0 5.523 4.477 10 10 10V25z" fill="#FF8000"/><path d="M5 5h10c5.523 0 10 4.477 10 10H15C9.477 15 5 10.523 5 5zM35 35V25c0-5.523-4.477-10-10-10v10c0 5.523 4.477 10 10 10z" fill="#1A6847"/><path d="M25 25c0-5.523-4.477-10-10-10H5c0 5.523 4.477 10 10 10 0 5.523 4.477 10 10 10V25z" fill="#FF8000"/></svg>