<?xml version="1.0" encoding="UTF-8" standalone="no"?><svg xmlns="http://www.w3.org/2000/svg" width="25" height="24" fill="none"><path stroke="#fff" stroke-width="1.5" d="M20.755 7.987c.013.175.013.35.013.525C20.768 13.85 16.526 20 8.773 20c-2.388 0-4.607-.663-6.473-1.813.34.038.665.05 1.018.05 1.97 0 3.785-.637 5.234-1.724C4.8 15 1.8 10 3.735 4.736c2.076 2.45 5.195 4.05 8.693 4.225a4.376 4.376 0 0 1-.105-.924C12.323 5.812 14.203 4 16.54 4c1.214 0 2.31.487 3.08 1.275 1.15 0 1.708-.275 2.676-.975.06 2.2-.454 2.7-1.54 3.687Z"/></svg>