<?xml version="1.0" encoding="UTF-8" standalone="no"?><svg width="24" height="24" viewBox="0 0 24 24" fill="none" xmlns="http://www.w3.org/2000/svg">
<g clip-path="url(#clip0_2241_2180)">
<path d="M12.1333 0C10.5333 0 8.93333 0.8 8.13333 2.26667C7.33494 2.06226 6.49736 2.06686 5.70126 2.28004C4.90517 2.49321 4.17736 2.90777 3.58794 3.48379C2.99853 4.05981 2.56735 4.77789 2.33593 5.56888C2.10452 6.35987 2.08066 7.19712 2.26667 8C0.933333 8.8 0 10.4 0 12C0 13.6 0.933333 15.2 2.26667 16C1.86667 17.6 2.26667 19.3333 3.6 20.5333C4.66667 21.6 6.4 22.1333 8 21.8667C8.8 23.2 10.4 24 12 24C13.6 24 15.2 23.2 16 21.7333C17.6 22.1333 19.3333 21.7333 20.5333 20.4C21.6 19.3333 22.1333 17.7333 21.8667 16C23.2 15.2 24 13.6 24 12C24 10.4 23.2 8.8 21.7333 8C22.1333 6.4 21.7333 4.66667 20.4 3.46667C19.83 2.9039 19.1314 2.48841 18.3648 2.2561C17.5982 2.0238 16.7866 1.98166 16 2.13333C15.2 0.8 13.6 0 12 0H12.1333Z" fill="#1DF59F"/>
<path d="M8 12.5L10.6667 15L16 10" stroke="#0A031C" stroke-width="1.5" stroke-linecap="square"/>
</g>
<defs>
<clipPath id="clip0_2241_2180">
<rect width="24" height="24" fill="white"/>
</clipPath>
</defs>
</svg>
