<?xml version="1.0" encoding="UTF-8" standalone="no"?><svg xmlns="http://www.w3.org/2000/svg" width="145" height="24" fill="none">
  <g fill="#fff" clip-path="url(#a)">
    <path d="M56.719.01v23.042h4.778v-9.704c0-4.31 6.371-4.177 6.371 0v9.713h4.779V12.368c0-6.955-8.71-7.744-11.15-4.415V.01H56.72ZM20.686.01v23.042h4.778v-9.704c0-4.31 6.371-4.177 6.371 0v9.713h4.779V12.368c0-6.955-8.711-7.744-11.15-4.415V.01h-4.778ZM4.59 22.357c2.508 1.304 6.818 1.532 9.685.057 5.894-3.025 5.645-11.121-2.677-12.786C7.994 8.924 7.327 8.914 6.63 8.2c-1.443-1.38-.1-3.777 2.449-3.777 2.33 0 3.375.77 4.24 2.768l4.65-1.341c-.19-.913-.637-1.827-1.274-2.711-.668-.885-1.623-1.618-2.897-2.227C12.523.304 10.96 0 9.079 0 6.381.01 3.644 1.199 2.011 3.415c-1.852 2.579-1.334 6.051.537 8.04 2.091 2.216 4.66 2.33 8.024 2.92C14.146 15.09 13.798 19 9.776 19c-2.867 0-4.56-1.218-5.097-3.682L0 16.44c.329 2.273 1.872 4.547 4.59 5.908v.01ZM136.28 10.39v6.516c.05 1.998 2.658 3.083 4.092 1.627.816-.837.647-1.56.647-4.043h3.982v2.426c0 3.453-2.997 6.412-6.64 6.317-3.892 0-6.859-2.664-6.859-6.175V.581h4.778v5.85h8.462v3.958h-8.462ZM120.999 5.927c-4.022 0-6.829 2.426-7.864 4.862l4.111 1.627c.976-2.284 2.26-2.579 3.713-2.579 1.454 0 2.818 1.066 2.818 2.579l.039 2.226c-.696-.714-2.608-1.294-4.36-1.294-2.927 0-6.321 1.484-6.321 4.776s2.419 5.299 6.023 5.299c2.219 0 3.733-.866 4.957-2.207v1.893h4.45V12.701c0-4.262-2.807-6.774-7.566-6.774Zm-.079 14.071c-2.599 0-2.698-1.303-2.698-1.884 0-.523.199-1.76 2.658-1.76 1.593 0 2.578 1 2.797 1.703 0 .457-.299 1.95-2.757 1.95v-.009ZM82.911 5.927c-4.022 0-6.829 2.426-7.864 4.862l4.111 1.627c.976-2.284 2.26-2.579 3.713-2.579 1.454 0 2.818 1.066 2.818 2.579l.04 2.226c-.697-.714-2.609-1.294-4.36-1.294-2.927 0-6.322 1.484-6.322 4.776s2.419 5.299 6.023 5.299c2.22 0 3.733-.866 4.957-2.207v1.893h4.45V12.701c0-4.262-2.807-6.774-7.566-6.774Zm-.08 14.071c-2.598 0-2.697-1.303-2.697-1.884 0-.523.199-1.76 2.658-1.76 1.593 0 2.578 1 2.797 1.703 0 .457-.298 1.95-2.757 1.95v-.009ZM46.63 5.927c-4.022 0-6.83 2.426-7.864 4.862l4.111 1.627c.976-2.284 2.26-2.579 3.713-2.579 1.454 0 2.817 1.066 2.817 2.579l.04 2.226c-.697-.714-2.608-1.294-4.36-1.294-2.927 0-6.321 1.484-6.321 4.776s2.419 5.299 6.022 5.299c2.22 0 3.734-.866 4.958-2.207v1.893h4.45V12.701c0-4.262-2.807-6.774-7.566-6.774Zm-.08 14.071c-2.598 0-2.697-1.303-2.697-1.884 0-.523.199-1.76 2.658-1.76 1.592 0 2.578 1 2.797 1.703 0 .457-.299 1.95-2.758 1.95v-.009ZM92.885 15.64c0-4.842 3.136-8.352 7.456-8.352 2.678 0 3.982 1.303 5.346 2.54V.133h4.659V23.68h-4.191v-2.654l-.866.865c-4.43 4.434-12.394 1.656-12.394-6.26l-.01.01Zm8.81-4.442c-5.286 0-5.206 8.886 0 8.886s5.286-8.886 0-8.886Z"/>
  </g>
  <defs>
    <clipPath id="a">
      <path fill="#fff" d="M0 0h145.001v24H0z"/>
    </clipPath>
  </defs>
</svg>