<?xml version="1.0" encoding="UTF-8" standalone="no"?><svg width="163" height="36" viewBox="0 0 163 36" fill="none" xmlns="http://www.w3.org/2000/svg">
<g clip-path="url(#clip0_1812_129)">
<g clip-path="url(#clip1_1812_129)">
<path d="M56.7188 6.00952V29.0518H61.4971V19.3478C61.4971 15.0381 67.8683 15.1713 67.8683 19.3478V29.0613H72.6467V18.3679C72.6467 11.4133 63.9361 10.6237 61.4971 13.9535V6.00952H56.7188V6.00952Z" fill="white"/>
<path d="M20.6855 6.00952V29.0518H25.4639V19.3478C25.4639 15.0381 31.8351 15.1713 31.8351 19.3478V29.0613H36.6135V18.3679C36.6135 11.4133 27.9029 10.6237 25.4639 13.9535V6.00952H20.6855Z" fill="white"/>
<path d="M4.58925 28.3573C7.09791 29.6607 11.4084 29.889 14.2755 28.4144C20.1688 25.389 19.9199 17.2928 11.5976 15.6279C7.99386 14.9239 7.32688 14.9144 6.63003 14.2009C5.18655 12.8214 6.53048 10.4239 9.07896 10.4239C11.4084 10.4239 12.4537 11.1945 13.3198 13.1924L17.9688 11.851C17.7796 10.9376 17.3317 10.0243 16.6945 9.13954C16.0275 8.25476 15.0719 7.5222 13.7976 6.91332C12.5234 6.30444 10.9605 6 9.07896 6C6.38115 6.00951 3.64353 7.19873 2.01091 9.41544C0.15928 11.9937 0.67694 15.4662 2.54848 17.4546C4.63903 19.6713 7.20742 19.7854 10.5722 20.3753C14.1461 21.0888 13.7976 24.999 9.77581 24.999C6.90877 24.999 5.21642 23.7812 4.67885 21.3171L0 22.4398C0.328515 24.7135 1.87154 26.9873 4.58925 28.3478V28.3573Z" fill="white"/>
<path d="M136.28 16.3892C136.28 22.1831 136.28 22.792 136.28 22.9062C136.33 24.9041 138.938 25.9886 140.372 24.533C141.188 23.6958 141.019 22.9728 141.019 20.4897H145.001V22.9157C145.001 26.3692 142.004 29.3279 138.361 29.2328C134.469 29.2328 131.502 26.569 131.502 23.0584V6.58057H136.28V12.4315H144.742V16.3892H136.28V16.3892Z" fill="white"/>
<path d="M120.999 11.9271C116.977 11.9271 114.17 14.3531 113.135 16.7887L117.246 18.4155C118.222 16.1322 119.506 15.8373 120.959 15.8373C122.413 15.8373 123.777 16.9028 123.777 18.4155L123.816 20.6417C123.12 19.9282 121.208 19.3479 119.456 19.3479C116.529 19.3479 113.135 20.832 113.135 24.1238C113.135 27.4155 115.554 29.4229 119.158 29.4229C121.377 29.4229 122.891 28.5572 124.115 27.2157V29.109H128.565V18.7009C128.565 14.4388 125.758 11.9271 120.999 11.9271V11.9271ZM120.92 25.998C118.321 25.998 118.222 24.6946 118.222 24.1142C118.222 23.591 118.421 22.3542 120.88 22.3542C122.473 22.3542 123.458 23.3531 123.677 24.0572C123.677 24.5138 123.378 26.0075 120.92 26.0075V25.998Z" fill="white"/>
<path d="M82.9113 11.9271C78.8895 11.9271 76.0822 14.3531 75.0469 16.7887L79.1583 18.4155C80.1339 16.1322 81.4181 15.8373 82.8715 15.8373C84.3249 15.8373 85.6888 16.9028 85.6888 18.4155L85.7286 20.6417C85.0317 19.9282 83.1204 19.3479 81.3683 19.3479C78.4415 19.3479 75.0469 20.832 75.0469 24.1238C75.0469 27.4155 77.4659 29.4229 81.0697 29.4229C83.2896 29.4229 84.8028 28.5572 86.0272 27.2157V29.109H90.4771V18.7009C90.4771 14.4388 87.6698 11.9271 82.9113 11.9271V11.9271ZM82.8317 25.998C80.2334 25.998 80.1339 24.6946 80.1339 24.1142C80.1339 23.591 80.333 22.3542 82.7919 22.3542C84.3847 22.3542 85.3702 23.3531 85.5892 24.0572C85.5892 24.5138 85.2906 26.0075 82.8317 26.0075V25.998Z" fill="white"/>
<path d="M46.6301 11.9271C42.6083 11.9271 39.8009 14.3531 38.7656 16.7887L42.877 18.4155C43.8526 16.1322 45.1368 15.8373 46.5903 15.8373C48.0437 15.8373 49.4075 16.9028 49.4075 18.4155L49.4473 20.6417C48.7505 19.9282 46.8391 19.3479 45.0871 19.3479C42.1603 19.3479 38.7656 20.832 38.7656 24.1238C38.7656 27.4155 41.1847 29.4229 44.7884 29.4229C47.0084 29.4229 48.5215 28.5572 49.746 27.2157V29.109H54.1959V18.7009C54.1959 14.4388 51.3886 11.9271 46.6301 11.9271V11.9271ZM46.5504 25.998C43.9522 25.998 43.8526 24.6946 43.8526 24.1142C43.8526 23.591 44.0517 22.3542 46.5106 22.3542C48.1034 22.3542 49.089 23.3531 49.308 24.0572C49.308 24.5138 49.0093 26.0075 46.5504 26.0075V25.998Z" fill="white"/>
<path d="M92.8848 21.6407C92.8848 16.7982 96.0206 13.2876 100.341 13.2876C103.019 13.2876 104.323 14.591 105.687 15.8278V6.1333H110.346V29.6798H106.155V27.0255L105.289 27.8913C100.859 32.3247 92.8947 29.5466 92.8947 21.6312L92.8848 21.6407ZM101.695 17.1978C96.4088 17.1978 96.4885 26.0836 101.695 26.0836C106.901 26.0836 106.981 17.1978 101.695 17.1978V17.1978Z" fill="white"/>
</g>
<path d="M141 7.87516H142.448V5.0143H143.959C144.499 5.0143 144.974 4.92068 145.386 4.73342C145.798 4.53923 146.121 4.25834 146.355 3.89077C146.596 3.52319 146.717 3.08279 146.717 2.56957C146.717 2.04248 146.6 1.59861 146.365 1.23797C146.131 0.87733 145.805 0.603381 145.386 0.416125C144.974 0.221933 144.499 0.124837 143.959 0.124837H141V7.87516ZM142.448 3.76593V1.37321H143.981C144.371 1.37321 144.683 1.48071 144.918 1.69571C145.152 1.91071 145.269 2.20199 145.269 2.56957C145.269 2.93021 145.152 3.2215 144.918 3.44343C144.683 3.65843 144.371 3.76593 143.981 3.76593H142.448Z" fill="#1DF59F"/>
<path d="M147.903 7.87516H149.351V5.0143H150.713L152.353 7.87516H153.992L152.172 4.76463C152.612 4.58431 152.96 4.30689 153.215 3.93238C153.478 3.55787 153.609 3.1036 153.609 2.56957C153.609 2.04248 153.492 1.59861 153.258 1.23797C153.024 0.87733 152.697 0.603381 152.278 0.416125C151.867 0.221933 151.391 0.124837 150.852 0.124837H147.903V7.87516ZM149.351 3.76593V1.37321H150.873C151.264 1.37321 151.576 1.48071 151.81 1.69571C152.044 1.91071 152.161 2.20199 152.161 2.56957C152.161 2.93021 152.044 3.2215 151.81 3.44343C151.576 3.65843 151.264 3.76593 150.873 3.76593H149.351Z" fill="#1DF59F"/>
<path d="M158.848 8C159.437 8 159.984 7.89944 160.488 7.69831C160.992 7.49718 161.432 7.2163 161.808 6.85566C162.184 6.49502 162.475 6.07196 162.681 5.58648C162.894 5.09406 163 4.5635 163 3.9948C163 3.41916 162.894 2.8886 162.681 2.40312C162.475 1.91764 162.184 1.49805 161.808 1.14434C161.432 0.783702 160.992 0.502817 160.488 0.30169C159.984 0.100563 159.437 0 158.848 0C158.259 0 157.713 0.100563 157.209 0.30169C156.705 0.502817 156.265 0.783702 155.889 1.14434C155.52 1.49805 155.229 1.91764 155.016 2.40312C154.81 2.8886 154.707 3.41916 154.707 3.9948C154.707 4.5635 154.81 5.09406 155.016 5.58648C155.229 6.07196 155.523 6.49502 155.899 6.85566C156.275 7.2163 156.716 7.49718 157.219 7.69831C157.723 7.89944 158.266 8 158.848 8ZM158.848 6.71001C158.337 6.71001 157.876 6.59211 157.464 6.35631C157.06 6.1205 156.74 5.79801 156.506 5.38882C156.272 4.97963 156.155 4.51495 156.155 3.9948C156.155 3.47464 156.272 3.01344 156.506 2.61118C156.74 2.20199 157.06 1.8795 157.464 1.64369C157.876 1.40789 158.337 1.28999 158.848 1.28999C159.366 1.28999 159.828 1.40789 160.232 1.64369C160.637 1.8795 160.956 2.20199 161.19 2.61118C161.424 3.01344 161.542 3.47464 161.542 3.9948C161.542 4.51495 161.424 4.97963 161.19 5.38882C160.956 5.79801 160.637 6.1205 160.232 6.35631C159.828 6.59211 159.366 6.71001 158.848 6.71001Z" fill="#1DF59F"/>
</g>
<defs>
<clipPath id="clip0_1812_129">
<rect width="163" height="36" fill="white"/>
</clipPath>
<clipPath id="clip1_1812_129">
<rect width="145.001" height="24" fill="white" transform="translate(0 6)"/>
</clipPath>
</defs>
</svg>
