<?xml version="1.0" encoding="UTF-8" standalone="no"?><svg xmlns="http://www.w3.org/2000/svg" width="320" height="320" fill="none"><path fill="#33FFB6" d="m200.116 140.044-.289-.408.289.408ZM91.451 92.461l-.41.285.41-.285ZM208.44 48l.006-.5-.772-.008.308.707.458-.199Zm87.726 21.868.432-.25-.432.25ZM249.491 177.77l-.411-.285.411.285Zm-14.288 20.669.411.284-.411-.284ZM160 272v.5-.5Zm-75.203-73.561-.411.284.411-.284ZM70.509 177.77l.41-.285-.41.285ZM23.834 69.868l.433.25-.433-.25Zm46.591-20.175.478-.146-.119-.39-.406.038.047.498Zm129.401 89.943c-.533.377-1.073.739-1.621 1.087l.536.844a39.191 39.191 0 0 0 1.663-1.115l-.578-.816Zm-8.573 4.565c-1.209.46-2.444.862-3.702 1.206l.264.965a41.388 41.388 0 0 0 3.794-1.237l-.356-.934Zm-11.372 2.579a49.635 49.635 0 0 1-3.903.2l.012 1a50.728 50.728 0 0 0 3.982-.204l-.091-.996Zm-11.699-.264a63.815 63.815 0 0 1-3.863-.617l-.187.983c1.316.251 2.625.46 3.923.625l.127-.991Zm-11.462-2.509a82.235 82.235 0 0 1-3.72-1.238l-.338.941c1.259.452 2.515.871 3.765 1.253l.293-.956Zm-10.976-4.219a100.13 100.13 0 0 1-3.53-1.716l-.455.891c1.189.607 2.378 1.184 3.566 1.733l.419-.908Zm-10.389-5.544c-1.11-.672-2.219-1.37-3.326-2.093l-.547.837a117.88 117.88 0 0 0 3.355 2.112l.518-.856Zm-9.768-6.601a131.88 131.88 0 0 1-3.109-2.396l-.622.783c1.04.826 2.084 1.631 3.132 2.414l.599-.801Zm-9.118-7.459a145.405 145.405 0 0 1-2.9-2.656l-.685.728c.967.911 1.941 1.802 2.919 2.675l.666-.747Zm-8.486-8.2a153.55 153.55 0 0 1-2.678-2.872l-.74.672c.891.981 1.79 1.944 2.695 2.891l.723-.691Zm-7.823-8.82a160.89 160.89 0 0 1-2.465-3.07l-.787.617a162.487 162.487 0 0 0 2.48 3.089l.772-.636Zm-7.165-9.371c-.38-.536-.758-1.074-1.134-1.617l-.822.57c.378.545.758 1.087 1.14 1.626l.816-.58Zm-1.134-1.617c-.378-.546-.752-1.093-1.122-1.64l-.829.559c.373.55.749 1.101 1.13 1.65l.821-.569Zm-5.412-8.334a164.115 164.115 0 0 1-2.023-3.42l-.867.498a164.28 164.28 0 0 0 2.035 3.442l.855-.52Zm-5.815-10.406a156.51 156.51 0 0 1-1.764-3.562l-.901.432c.573 1.196 1.165 2.39 1.775 3.585l.89-.456ZM75.623 62.62c-.512-1.23-1.005-2.46-1.478-3.688l-.933.36c.476 1.236.972 2.474 1.488 3.712l.923-.384Zm-4.125-11.18c-.203-.632-.401-1.263-.594-1.894l-.956.292c.194.635.393 1.272.598 1.909l.952-.306Zm-1.12-2.246c-.74.07-1.47.144-2.193.22l.105.995a215.56 215.56 0 0 1 2.183-.22l-.094-.995ZM59.44 50.55c-1.495.236-2.945.49-4.352.762l.19.982c1.395-.27 2.833-.522 4.318-.756l-.156-.988Zm-12.941 2.836a64.792 64.792 0 0 0-4.204 1.404l.35.937a63.802 63.802 0 0 1 4.14-1.383l-.286-.958Zm-12.207 5.243a34.857 34.857 0 0 0-3.646 2.563l.627.778c1.1-.885 2.28-1.713 3.542-2.488l-.523-.852Zm-9.7 9.096a30.55 30.55 0 0 0-1.19 1.893l.866.5c.364-.628.748-1.238 1.15-1.83l-.825-.563Zm-1.19 1.893c-.35.606-.677 1.217-.98 1.833l.898.44c.293-.595.609-1.186.948-1.772l-.865-.501Zm-3.505 9.717a30.292 30.292 0 0 0-.386 4.13l1 .026c.035-1.363.159-2.693.373-3.994l-.987-.162Zm.344 12.348c.251 1.313.566 2.652.942 4.022l.965-.265a51.535 51.535 0 0 1-.925-3.945l-.982.188Zm3.592 11.789a101.786 101.786 0 0 0 1.609 3.784l.912-.41a100.685 100.685 0 0 1-1.593-3.746l-.928.372Zm5.197 11.147a182.765 182.765 0 0 0 1.934 3.605l.876-.482c-.67-1.217-1.31-2.411-1.924-3.585l-.886.462Zm6.006 10.702c.684 1.15 1.39 2.318 2.115 3.504l.853-.522a331.214 331.214 0 0 1-2.108-3.493l-.86.511Zm6.458 10.438c.72 1.127 1.456 2.269 2.208 3.427l.838-.545a561.973 561.973 0 0 1-2.203-3.42l-.843.538Zm6.696 10.248c.745 1.12 1.504 2.255 2.276 3.404l.83-.558c-.77-1.148-1.529-2.281-2.274-3.4l-.832.554Zm6.849 10.162a1950.6 1950.6 0 0 0 2.302 3.373l.825-.565a1893.74 1893.74 0 0 1-2.3-3.371l-.827.563Zm6.927 10.108 2.315 3.359.823-.568-2.315-3.358-.823.567Zm6.958 10.079 1.173 1.698.823-.569-1.174-1.697-.822.568Zm1.173 1.698 1.19 1.722.823-.568-1.19-1.723-.823.569Zm5.954 8.612 2.381 3.445.823-.569-2.382-3.445-.822.569Zm7.144 10.335 1.19 1.722.823-.569-1.19-1.722-.823.569Zm1.19 1.722 1.157 1.673.823-.569-1.157-1.673-.822.569Zm5.736 8.29c.776 1.12 1.544 2.226 2.302 3.317l.821-.571c-.758-1.091-1.525-2.196-2.3-3.316l-.823.57Zm6.91 9.921c.781 1.113 1.552 2.209 2.314 3.288l.817-.577a1190.18 1190.18 0 0 1-2.312-3.285l-.818.574Zm6.995 9.856a610.089 610.089 0 0 0 2.367 3.267l.808-.589a668.831 668.831 0 0 1-2.364-3.262l-.811.584Zm7.174 9.744a354.13 354.13 0 0 0 2.451 3.202l.791-.612c-.806-1.04-1.62-2.104-2.444-3.193l-.798.603Zm7.482 9.504c.875 1.059 1.74 2.087 2.598 3.083l.758-.652a195.263 195.263 0 0 1-2.585-3.068l-.771.637Zm8.041 9.077c.959.994 1.91 1.946 2.857 2.856l.693-.721c-.937-.9-1.88-1.843-2.83-2.829l-.72.694Zm8.967 8.182a57.942 57.942 0 0 0 3.288 2.385l.557-.83a56.88 56.88 0 0 1-3.231-2.344l-.614.789Zm10.41 6.313a36.421 36.421 0 0 0 3.83 1.407l.291-.957a35.422 35.422 0 0 1-3.725-1.368l-.396.918Zm11.857 2.832a35.44 35.44 0 0 0 2.043.058v-1c-.668 0-1.33-.019-1.986-.056l-.057.998Zm2.043.058c.686 0 1.367-.019 2.043-.058l-.057-.998a35.26 35.26 0 0 1-1.986.056v1Zm10.07-1.483a36.421 36.421 0 0 0 3.83-1.407l-.396-.918a35.422 35.422 0 0 1-3.725 1.368l.291.957Zm10.952-5.335a57.942 57.942 0 0 0 3.288-2.385l-.614-.789a56.88 56.88 0 0 1-3.231 2.344l.557.83Zm9.398-7.711c.947-.91 1.898-1.862 2.857-2.856l-.72-.694c-.951.986-1.893 1.929-2.83 2.829l.693.721Zm8.3-8.85c.857-.996 1.723-2.024 2.598-3.083l-.771-.637a195.263 195.263 0 0 1-2.585 3.068l.758.652Zm7.629-9.385a354.13 354.13 0 0 0 2.451-3.202l-.798-.603a347.922 347.922 0 0 1-2.444 3.193l.791.612Zm7.258-9.679c.78-1.069 1.569-2.158 2.367-3.267l-.811-.584a623.586 623.586 0 0 1-2.364 3.262l.808.589Zm7.048-9.835c.762-1.079 1.533-2.175 2.313-3.288l-.818-.574c-.78 1.112-1.551 2.207-2.312 3.285l.817.577Zm6.922-9.892 2.302-3.317-.822-.57-2.301 3.316.821.571Zm6.881-9.934 1.156-1.673-.822-.569-1.157 1.674.823.568Zm1.156-1.673 1.191-1.722-.823-.569-1.19 1.722.822.569Zm5.954-8.612 2.381-3.445-.822-.569-2.382 3.445.823.569Zm7.144-10.335 1.191-1.722-.823-.569-1.191 1.723.823.568Zm1.191-1.722 1.173-1.697-.822-.569-1.174 1.697.823.569Zm5.816-8.418 2.315-3.359-.824-.567c-.762 1.108-1.534 2.227-2.314 3.358l.823.568Zm6.94-10.094c.778-1.137 1.545-2.262 2.302-3.373l-.826-.563c-.757 1.111-1.524 2.234-2.302 3.371l.826.565Zm6.875-10.131a883.463 883.463 0 0 0 2.276-3.404l-.832-.554c-.745 1.119-1.503 2.252-2.274 3.4l.83.558Zm6.764-10.225a547.92 547.92 0 0 0 2.208-3.427l-.842-.538a632.523 632.523 0 0 1-2.204 3.42l.838.545Zm6.551-10.361a321.724 321.724 0 0 0 2.115-3.504l-.86-.511a329.41 329.41 0 0 1-2.108 3.493l.853.522Zm6.187-10.601a191.765 191.765 0 0 0 1.934-3.604l-.886-.463a190.195 190.195 0 0 1-1.924 3.585l.876.482Zm5.522-10.968a101.78 101.78 0 0 0 1.609-3.784l-.928-.372a101.184 101.184 0 0 1-1.593 3.746l.912.41Zm4.259-11.551c.376-1.37.691-2.71.942-4.022l-.982-.188a51.325 51.325 0 0 1-.925 3.945l.965.265Zm1.672-12.24a30.259 30.259 0 0 0-.386-4.13l-.986.162c.213 1.3.337 2.63.372 3.994l1-.026Zm-2.912-12.014a29.773 29.773 0 0 0-.98-1.833l-.865.5c.339.587.655 1.178.948 1.774l.897-.44Zm-.98-1.833a30.413 30.413 0 0 0-1.052-1.689l-.831.556c.355.53.694 1.075 1.018 1.634l.865-.501Zm-6.305-7.64a33.231 33.231 0 0 0-3.149-2.422l-.562.827a32.223 32.223 0 0 1 3.055 2.348l.656-.754Zm-10.098-6.188a55.735 55.735 0 0 0-3.68-1.43l-.33.943c1.257.44 2.462.908 3.614 1.406l.396-.919Zm-11.246-3.613c-1.245-.294-2.527-.57-3.85-.828l-.192.981c1.311.257 2.581.53 3.812.82l.23-.973Zm-11.597-2.097a177.965 177.965 0 0 0-3.896-.485l-.113.993c1.323.15 2.614.311 3.875.482l.134-.99Zm-11.717-1.232a298.032 298.032 0 0 0-3.909-.283l-.066.998c1.324.087 2.622.181 3.896.282l.079-.997Zm-11.732-.715a488.42 488.42 0 0 0-3.916-.161l-.037 1c1.323.049 2.626.102 3.907.16l.046-.998Zm-11.75-.401c-1.286-.032-2.589-.06-3.91-.087l-.02 1c1.32.026 2.621.055 3.905.086l.025-1Zm-11.733-.21-1.974-.022-.011 1 1.973.022.012-1Zm-2.438.677c.276.636.547 1.27.813 1.905l.922-.386c-.267-.639-.54-1.278-.818-1.917l-.917.398Zm3.785 9.61c.462 1.306.9 2.61 1.317 3.911l.952-.304c-.419-1.31-.861-2.624-1.326-3.94l-.943.332Zm3.585 11.846c.339 1.347.653 2.688.942 4.021l.977-.211a123.462 123.462 0 0 0-.949-4.054l-.97.244Zm2.401 12.144a104.9 104.9 0 0 1 .5 4.09l.995-.101c-.14-1.366-.308-2.743-.505-4.13l-.99.14Zm.995 12.321a86.73 86.73 0 0 1-.029 4.12l.999.03c.043-1.372.053-2.761.03-4.166l-1 .016Zm-.714 12.322a68.63 68.63 0 0 1-.686 4.054l.98.197c.271-1.347.503-2.718.697-4.113l-.991-.138Zm-2.84 11.979a52.217 52.217 0 0 1-1.504 3.818l.915.403a53.312 53.312 0 0 0 1.533-3.891l-.944-.33Zm-5.443 10.996a41.352 41.352 0 0 1-2.45 3.276l.77.638a42.181 42.181 0 0 0 2.509-3.355l-.829-.559Zm-8.285 8.992c-.533.422-1.079.831-1.638 1.227l.578.816a39.322 39.322 0 0 0 1.681-1.259l-.621-.784Z"/></svg>